# vtk DataFile Version 2.0
Square plate test
ASCII
DATASET UNSTRUCTURED_GRID
POINTS 1331 float
0 0 0
1 0 0
2 0 0
3 0 0
4 0 0
5 0 0
6 0 0
7 0 0
8 0 0
9 0 0
10 0 0
0 1 0
1 1 0
2 1 0
3 1 0
4 1 0
5 1 0
6 1 0
7 1 0
8 1 0
9 1 0
10 1 0
0 2 0
1 2 0
2 2 0
3 2 0
4 2 0
5 2 0
6 2 0
7 2 0
8 2 0
9 2 0
10 2 0
0 3 0
1 3 0
2 3 0
3 3 0
4 3 0
5 3 0
6 3 0
7 3 0
8 3 0
9 3 0
10 3 0
0 4 0
1 4 0
2 4 0
3 4 0
4 4 0
5 4 0
6 4 0
7 4 0
8 4 0
9 4 0
10 4 0
0 5 0
1 5 0
2 5 0
3 5 0
4 5 0
5 5 0
6 5 0
7 5 0
8 5 0
9 5 0
10 5 0
0 6 0
1 6 0
2 6 0
3 6 0
4 6 0
5 6 0
6 6 0
7 6 0
8 6 0
9 6 0
10 6 0
0 7 0
1 7 0
2 7 0
3 7 0
4 7 0
5 7 0
6 7 0
7 7 0
8 7 0
9 7 0
10 7 0
0 8 0
1 8 0
2 8 0
3 8 0
4 8 0
5 8 0
6 8 0
7 8 0
8 8 0
9 8 0
10 8 0
0 9 0
1 9 0
2 9 0
3 9 0
4 9 0
5 9 0
6 9 0
7 9 0
8 9 0
9 9 0
10 9 0
0 10 0
1 10 0
2 10 0
3 10 0
4 10 0
5 10 0
6 10 0
7 10 0
8 10 0
9 10 0
10 10 0
0 0 1
1 0 1
2 0 1
3 0 1
4 0 1
5 0 1
6 0 1
7 0 1
8 0 1
9 0 1
10 0 1
0 1 1
1 1 1
2 1 1
3 1 1
4 1 1
5 1 1
6 1 1
7 1 1
8 1 1
9 1 1
10 1 1
0 2 1
1 2 1
2 2 1
3 2 1
4 2 1
5 2 1
6 2 1
7 2 1
8 2 1
9 2 1
10 2 1
0 3 1
1 3 1
2 3 1
3 3 1
4 3 1
5 3 1
6 3 1
7 3 1
8 3 1
9 3 1
10 3 1
0 4 1
1 4 1
2 4 1
3 4 1
4 4 1
5 4 1
6 4 1
7 4 1
8 4 1
9 4 1
10 4 1
0 5 1
1 5 1
2 5 1
3 5 1
4 5 1
5 5 1
6 5 1
7 5 1
8 5 1
9 5 1
10 5 1
0 6 1
1 6 1
2 6 1
3 6 1
4 6 1
5 6 1
6 6 1
7 6 1
8 6 1
9 6 1
10 6 1
0 7 1
1 7 1
2 7 1
3 7 1
4 7 1
5 7 1
6 7 1
7 7 1
8 7 1
9 7 1
10 7 1
0 8 1
1 8 1
2 8 1
3 8 1
4 8 1
5 8 1
6 8 1
7 8 1
8 8 1
9 8 1
10 8 1
0 9 1
1 9 1
2 9 1
3 9 1
4 9 1
5 9 1
6 9 1
7 9 1
8 9 1
9 9 1
10 9 1
0 10 1
1 10 1
2 10 1
3 10 1
4 10 1
5 10 1
6 10 1
7 10 1
8 10 1
9 10 1
10 10 1
0 0 2
1 0 2
2 0 2
3 0 2
4 0 2
5 0 2
6 0 2
7 0 2
8 0 2
9 0 2
10 0 2
0 1 2
1 1 2
2 1 2
3 1 2
4 1 2
5 1 2
6 1 2
7 1 2
8 1 2
9 1 2
10 1 2
0 2 2
1 2 2
2 2 2
3 2 2
4 2 2
5 2 2
6 2 2
7 2 2
8 2 2
9 2 2
10 2 2
0 3 2
1 3 2
2 3 2
3 3 2
4 3 2
5 3 2
6 3 2
7 3 2
8 3 2
9 3 2
10 3 2
0 4 2
1 4 2
2 4 2
3 4 2
4 4 2
5 4 2
6 4 2
7 4 2
8 4 2
9 4 2
10 4 2
0 5 2
1 5 2
2 5 2
3 5 2
4 5 2
5 5 2
6 5 2
7 5 2
8 5 2
9 5 2
10 5 2
0 6 2
1 6 2
2 6 2
3 6 2
4 6 2
5 6 2
6 6 2
7 6 2
8 6 2
9 6 2
10 6 2
0 7 2
1 7 2
2 7 2
3 7 2
4 7 2
5 7 2
6 7 2
7 7 2
8 7 2
9 7 2
10 7 2
0 8 2
1 8 2
2 8 2
3 8 2
4 8 2
5 8 2
6 8 2
7 8 2
8 8 2
9 8 2
10 8 2
0 9 2
1 9 2
2 9 2
3 9 2
4 9 2
5 9 2
6 9 2
7 9 2
8 9 2
9 9 2
10 9 2
0 10 2
1 10 2
2 10 2
3 10 2
4 10 2
5 10 2
6 10 2
7 10 2
8 10 2
9 10 2
10 10 2
0 0 3
1 0 3
2 0 3
3 0 3
4 0 3
5 0 3
6 0 3
7 0 3
8 0 3
9 0 3
10 0 3
0 1 3
1 1 3
2 1 3
3 1 3
4 1 3
5 1 3
6 1 3
7 1 3
8 1 3
9 1 3
10 1 3
0 2 3
1 2 3
2 2 3
3 2 3
4 2 3
5 2 3
6 2 3
7 2 3
8 2 3
9 2 3
10 2 3
0 3 3
1 3 3
2 3 3
3 3 3
4 3 3
5 3 3
6 3 3
7 3 3
8 3 3
9 3 3
10 3 3
0 4 3
1 4 3
2 4 3
3 4 3
4 4 3
5 4 3
6 4 3
7 4 3
8 4 3
9 4 3
10 4 3
0 5 3
1 5 3
2 5 3
3 5 3
4 5 3
5 5 3
6 5 3
7 5 3
8 5 3
9 5 3
10 5 3
0 6 3
1 6 3
2 6 3
3 6 3
4 6 3
5 6 3
6 6 3
7 6 3
8 6 3
9 6 3
10 6 3
0 7 3
1 7 3
2 7 3
3 7 3
4 7 3
5 7 3
6 7 3
7 7 3
8 7 3
9 7 3
10 7 3
0 8 3
1 8 3
2 8 3
3 8 3
4 8 3
5 8 3
6 8 3
7 8 3
8 8 3
9 8 3
10 8 3
0 9 3
1 9 3
2 9 3
3 9 3
4 9 3
5 9 3
6 9 3
7 9 3
8 9 3
9 9 3
10 9 3
0 10 3
1 10 3
2 10 3
3 10 3
4 10 3
5 10 3
6 10 3
7 10 3
8 10 3
9 10 3
10 10 3
0 0 4
1 0 4
2 0 4
3 0 4
4 0 4
5 0 4
6 0 4
7 0 4
8 0 4
9 0 4
10 0 4
0 1 4
1 1 4
2 1 4
3 1 4
4 1 4
5 1 4
6 1 4
7 1 4
8 1 4
9 1 4
10 1 4
0 2 4
1 2 4
2 2 4
3 2 4
4 2 4
5 2 4
6 2 4
7 2 4
8 2 4
9 2 4
10 2 4
0 3 4
1 3 4
2 3 4
3 3 4
4 3 4
5 3 4
6 3 4
7 3 4
8 3 4
9 3 4
10 3 4
0 4 4
1 4 4
2 4 4
3 4 4
4 4 4
5 4 4
6 4 4
7 4 4
8 4 4
9 4 4
10 4 4
0 5 4
1 5 4
2 5 4
3 5 4
4 5 4
5 5 4
6 5 4
7 5 4
8 5 4
9 5 4
10 5 4
0 6 4
1 6 4
2 6 4
3 6 4
4 6 4
5 6 4
6 6 4
7 6 4
8 6 4
9 6 4
10 6 4
0 7 4
1 7 4
2 7 4
3 7 4
4 7 4
5 7 4
6 7 4
7 7 4
8 7 4
9 7 4
10 7 4
0 8 4
1 8 4
2 8 4
3 8 4
4 8 4
5 8 4
6 8 4
7 8 4
8 8 4
9 8 4
10 8 4
0 9 4
1 9 4
2 9 4
3 9 4
4 9 4
5 9 4
6 9 4
7 9 4
8 9 4
9 9 4
10 9 4
0 10 4
1 10 4
2 10 4
3 10 4
4 10 4
5 10 4
6 10 4
7 10 4
8 10 4
9 10 4
10 10 4
0 0 5
1 0 5
2 0 5
3 0 5
4 0 5
5 0 5
6 0 5
7 0 5
8 0 5
9 0 5
10 0 5
0 1 5
1 1 5
2 1 5
3 1 5
4 1 5
5 1 5
6 1 5
7 1 5
8 1 5
9 1 5
10 1 5
0 2 5
1 2 5
2 2 5
3 2 5
4 2 5
5 2 5
6 2 5
7 2 5
8 2 5
9 2 5
10 2 5
0 3 5
1 3 5
2 3 5
3 3 5
4 3 5
5 3 5
6 3 5
7 3 5
8 3 5
9 3 5
10 3 5
0 4 5
1 4 5
2 4 5
3 4 5
4 4 5
5 4 5
6 4 5
7 4 5
8 4 5
9 4 5
10 4 5
0 5 5
1 5 5
2 5 5
3 5 5
4 5 5
5 5 5
6 5 5
7 5 5
8 5 5
9 5 5
10 5 5
0 6 5
1 6 5
2 6 5
3 6 5
4 6 5
5 6 5
6 6 5
7 6 5
8 6 5
9 6 5
10 6 5
0 7 5
1 7 5
2 7 5
3 7 5
4 7 5
5 7 5
6 7 5
7 7 5
8 7 5
9 7 5
10 7 5
0 8 5
1 8 5
2 8 5
3 8 5
4 8 5
5 8 5
6 8 5
7 8 5
8 8 5
9 8 5
10 8 5
0 9 5
1 9 5
2 9 5
3 9 5
4 9 5
5 9 5
6 9 5
7 9 5
8 9 5
9 9 5
10 9 5
0 10 5
1 10 5
2 10 5
3 10 5
4 10 5
5 10 5
6 10 5
7 10 5
8 10 5
9 10 5
10 10 5
0 0 6
1 0 6
2 0 6
3 0 6
4 0 6
5 0 6
6 0 6
7 0 6
8 0 6
9 0 6
10 0 6
0 1 6
1 1 6
2 1 6
3 1 6
4 1 6
5 1 6
6 1 6
7 1 6
8 1 6
9 1 6
10 1 6
0 2 6
1 2 6
2 2 6
3 2 6
4 2 6
5 2 6
6 2 6
7 2 6
8 2 6
9 2 6
10 2 6
0 3 6
1 3 6
2 3 6
3 3 6
4 3 6
5 3 6
6 3 6
7 3 6
8 3 6
9 3 6
10 3 6
0 4 6
1 4 6
2 4 6
3 4 6
4 4 6
5 4 6
6 4 6
7 4 6
8 4 6
9 4 6
10 4 6
0 5 6
1 5 6
2 5 6
3 5 6
4 5 6
5 5 6
6 5 6
7 5 6
8 5 6
9 5 6
10 5 6
0 6 6
1 6 6
2 6 6
3 6 6
4 6 6
5 6 6
6 6 6
7 6 6
8 6 6
9 6 6
10 6 6
0 7 6
1 7 6
2 7 6
3 7 6
4 7 6
5 7 6
6 7 6
7 7 6
8 7 6
9 7 6
10 7 6
0 8 6
1 8 6
2 8 6
3 8 6
4 8 6
5 8 6
6 8 6
7 8 6
8 8 6
9 8 6
10 8 6
0 9 6
1 9 6
2 9 6
3 9 6
4 9 6
5 9 6
6 9 6
7 9 6
8 9 6
9 9 6
10 9 6
0 10 6
1 10 6
2 10 6
3 10 6
4 10 6
5 10 6
6 10 6
7 10 6
8 10 6
9 10 6
10 10 6
0 0 7
1 0 7
2 0 7
3 0 7
4 0 7
5 0 7
6 0 7
7 0 7
8 0 7
9 0 7
10 0 7
0 1 7
1 1 7
2 1 7
3 1 7
4 1 7
5 1 7
6 1 7
7 1 7
8 1 7
9 1 7
10 1 7
0 2 7
1 2 7
2 2 7
3 2 7
4 2 7
5 2 7
6 2 7
7 2 7
8 2 7
9 2 7
10 2 7
0 3 7
1 3 7
2 3 7
3 3 7
4 3 7
5 3 7
6 3 7
7 3 7
8 3 7
9 3 7
10 3 7
0 4 7
1 4 7
2 4 7
3 4 7
4 4 7
5 4 7
6 4 7
7 4 7
8 4 7
9 4 7
10 4 7
0 5 7
1 5 7
2 5 7
3 5 7
4 5 7
5 5 7
6 5 7
7 5 7
8 5 7
9 5 7
10 5 7
0 6 7
1 6 7
2 6 7
3 6 7
4 6 7
5 6 7
6 6 7
7 6 7
8 6 7
9 6 7
10 6 7
0 7 7
1 7 7
2 7 7
3 7 7
4 7 7
5 7 7
6 7 7
7 7 7
8 7 7
9 7 7
10 7 7
0 8 7
1 8 7
2 8 7
3 8 7
4 8 7
5 8 7
6 8 7
7 8 7
8 8 7
9 8 7
10 8 7
0 9 7
1 9 7
2 9 7
3 9 7
4 9 7
5 9 7
6 9 7
7 9 7
8 9 7
9 9 7
10 9 7
0 10 7
1 10 7
2 10 7
3 10 7
4 10 7
5 10 7
6 10 7
7 10 7
8 10 7
9 10 7
10 10 7
0 0 8
1 0 8
2 0 8
3 0 8
4 0 8
5 0 8
6 0 8
7 0 8
8 0 8
9 0 8
10 0 8
0 1 8
1 1 8
2 1 8
3 1 8
4 1 8
5 1 8
6 1 8
7 1 8
8 1 8
9 1 8
10 1 8
0 2 8
1 2 8
2 2 8
3 2 8
4 2 8
5 2 8
6 2 8
7 2 8
8 2 8
9 2 8
10 2 8
0 3 8
1 3 8
2 3 8
3 3 8
4 3 8
5 3 8
6 3 8
7 3 8
8 3 8
9 3 8
10 3 8
0 4 8
1 4 8
2 4 8
3 4 8
4 4 8
5 4 8
6 4 8
7 4 8
8 4 8
9 4 8
10 4 8
0 5 8
1 5 8
2 5 8
3 5 8
4 5 8
5 5 8
6 5 8
7 5 8
8 5 8
9 5 8
10 5 8
0 6 8
1 6 8
2 6 8
3 6 8
4 6 8
5 6 8
6 6 8
7 6 8
8 6 8
9 6 8
10 6 8
0 7 8
1 7 8
2 7 8
3 7 8
4 7 8
5 7 8
6 7 8
7 7 8
8 7 8
9 7 8
10 7 8
0 8 8
1 8 8
2 8 8
3 8 8
4 8 8
5 8 8
6 8 8
7 8 8
8 8 8
9 8 8
10 8 8
0 9 8
1 9 8
2 9 8
3 9 8
4 9 8
5 9 8
6 9 8
7 9 8
8 9 8
9 9 8
10 9 8
0 10 8
1 10 8
2 10 8
3 10 8
4 10 8
5 10 8
6 10 8
7 10 8
8 10 8
9 10 8
10 10 8
0 0 9
1 0 9
2 0 9
3 0 9
4 0 9
5 0 9
6 0 9
7 0 9
8 0 9
9 0 9
10 0 9
0 1 9
1 1 9
2 1 9
3 1 9
4 1 9
5 1 9
6 1 9
7 1 9
8 1 9
9 1 9
10 1 9
0 2 9
1 2 9
2 2 9
3 2 9
4 2 9
5 2 9
6 2 9
7 2 9
8 2 9
9 2 9
10 2 9
0 3 9
1 3 9
2 3 9
3 3 9
4 3 9
5 3 9
6 3 9
7 3 9
8 3 9
9 3 9
10 3 9
0 4 9
1 4 9
2 4 9
3 4 9
4 4 9
5 4 9
6 4 9
7 4 9
8 4 9
9 4 9
10 4 9
0 5 9
1 5 9
2 5 9
3 5 9
4 5 9
5 5 9
6 5 9
7 5 9
8 5 9
9 5 9
10 5 9
0 6 9
1 6 9
2 6 9
3 6 9
4 6 9
5 6 9
6 6 9
7 6 9
8 6 9
9 6 9
10 6 9
0 7 9
1 7 9
2 7 9
3 7 9
4 7 9
5 7 9
6 7 9
7 7 9
8 7 9
9 7 9
10 7 9
0 8 9
1 8 9
2 8 9
3 8 9
4 8 9
5 8 9
6 8 9
7 8 9
8 8 9
9 8 9
10 8 9
0 9 9
1 9 9
2 9 9
3 9 9
4 9 9
5 9 9
6 9 9
7 9 9
8 9 9
9 9 9
10 9 9
0 10 9
1 10 9
2 10 9
3 10 9
4 10 9
5 10 9
6 10 9
7 10 9
8 10 9
9 10 9
10 10 9
0 0 10
1 0 10
2 0 10
3 0 10
4 0 10
5 0 10
6 0 10
7 0 10
8 0 10
9 0 10
10 0 10
0 1 10
1 1 10
2 1 10
3 1 10
4 1 10
5 1 10
6 1 10
7 1 10
8 1 10
9 1 10
10 1 10
0 2 10
1 2 10
2 2 10
3 2 10
4 2 10
5 2 10
6 2 10
7 2 10
8 2 10
9 2 10
10 2 10
0 3 10
1 3 10
2 3 10
3 3 10
4 3 10
5 3 10
6 3 10
7 3 10
8 3 10
9 3 10
10 3 10
0 4 10
1 4 10
2 4 10
3 4 10
4 4 10
5 4 10
6 4 10
7 4 10
8 4 10
9 4 10
10 4 10
0 5 10
1 5 10
2 5 10
3 5 10
4 5 10
5 5 10
6 5 10
7 5 10
8 5 10
9 5 10
10 5 10
0 6 10
1 6 10
2 6 10
3 6 10
4 6 10
5 6 10
6 6 10
7 6 10
8 6 10
9 6 10
10 6 10
0 7 10
1 7 10
2 7 10
3 7 10
4 7 10
5 7 10
6 7 10
7 7 10
8 7 10
9 7 10
10 7 10
0 8 10
1 8 10
2 8 10
3 8 10
4 8 10
5 8 10
6 8 10
7 8 10
8 8 10
9 8 10
10 8 10
0 9 10
1 9 10
2 9 10
3 9 10
4 9 10
5 9 10
6 9 10
7 9 10
8 9 10
9 9 10
10 9 10
0 10 10
1 10 10
2 10 10
3 10 10
4 10 10
5 10 10
6 10 10
7 10 10
8 10 10
9 10 10
10 10 10
POINT_DATA 1331
SCALARS pact float 1
LOOKUP_TABLE default
0
0
0
0
0
0
0
0
0
0
0
0
0
0
0
0
0
0
0
0
0
0
0
0
0
0
0
0
0
0
0
0
0
0
0
0
0
0
0
0
0
0
0
0
0
0
0
0
0
0
0
0
0
0
0
0
0
0
0
0
0
0
0
0
0
0
0
0
0
0
0
0
0
0
0
0
0
0
0
0
0
0
0
0
0
0
0
0
0
0
0
0
0
0
0
0
0
0
0
0
0
0
0
0
0
0
0
0
0
0
0
0
0
0
0
0
0
0
0
0
0
0
0
0
0
0
0
0
0
0
0
0
0
5.048e-06
-1.1238e-05
1.22143e-05
2.45069e-05
-3.13544e-05
5.5876e-05
-1.3365e-05
6.59627e-07
4.80635e-08
0
0
-1.16794e-05
2.58276e-05
-2.19127e-05
-7.3574e-05
5.08903e-05
-0.000156964
4.34381e-05
-4.23873e-06
9.34381e-07
0
0
4.32947e-06
-1.0815e-06
-5.04023e-05
0.000313615
-0.000180958
0.000285457
-8.69636e-05
1.34757e-05
-2.19023e-06
0
0
2.61503e-05
-8.02524e-05
0.000221231
-0.000175765
-9.32749e-06
-0.000148613
0.000194768
-6.40075e-05
1.87948e-05
0
0
-1.16727e-05
-3.31648e-06
1.36566e-05
-0.000112343
-0.000202688
-0.000161748
5.51339e-05
-5.49509e-05
9.33848e-06
0
0
2.38994e-05
-7.13417e-05
0.000114346
-3.71929e-05
-0.000142686
-7.67437e-05
0.000160874
-4.30612e-05
1.17358e-05
0
0
-7.5151e-06
2.01797e-05
-1.7265e-05
0.000119313
-0.000103261
0.000239402
2.89272e-06
-2.69239e-06
4.49634e-06
0
0
3.80475e-06
-8.58496e-06
2.3185e-05
-8.59319e-05
-6.11251e-06
-7.42205e-05
-2.58954e-05
9.99732e-06
-4.26914e-06
0
0
-1.0016e-06
2.12646e-06
-4.94649e-06
2.92029e-05
-1.75936e-05
2.25227e-05
1.30029e-05
-4.37518e-06
1.85915e-06
0
0
0
0
0
0
0
0
0
0
0
0
0
0
0
0
0
0
0
0
0
0
0
0
-1.1475e-05
2.50052e-05
-2.04898e-05
-7.36038e-05
4.99313e-05
-0.000150096
3.65772e-05
-1.22596e-06
-3.22011e-07
0
0
2.64922e-05
-5.66832e-05
3.00873e-05
0.000215247
-5.08563e-05
0.000422082
-0.000117855
1.02416e-05
-1.89975e-06
0
0
-5.35776e-06
-1.34723e-05
0.000147493
-0.000395238
0.000642848
-0.000333412
0.000213156
-3.4043e-05
4.55263e-06
0
0
-7.11739e-05
0.000221001
-0.000153214
0.000708453
0.00120881
0.000623732
-7.15517e-05
0.00015627
-4.20078e-05
0
0
2.39284e-06
8.91447e-05
0.000216539
0.00139401
0.998667
0.00147307
6.24375e-05
0.000213158
-4.80594e-05
0
0
-5.50151e-05
0.000170769
9.42407e-05
0.000429484
0.00156592
0.000461024
1.99693e-05
0.000132455
-3.66713e-05
0
0
1.69057e-05
-4.74516e-05
5.7172e-05
7.13255e-05
0.000354145
-0.000218472
1.59135e-05
-1.60329e-05
-2.59664e-06
0
0
-7.39978e-06
1.68279e-05
-6.8453e-05
0.000239219
0.000134558
0.00022359
3.71682e-05
-1.28889e-05
5.8927e-06
0
0
1.63615e-06
-3.16544e-06
1.60453e-05
-7.96001e-05
-7.26537e-07
-6.96792e-05
-2.15651e-05
6.19565e-06
-2.68267e-06
0
0
0
0
0
0
0
0
0
0
0
0
0
0
0
0
0
0
0
0
0
0
0
0
1.09863e-05
-1.25742e-05
-9.38968e-06
0.000129642
-1.03789e-05
0.000257778
-8.24536e-05
2.20524e-05
-5.41489e-06
0
0
-2.21067e-05
1.62948e-05
4.88361e-05
5.08851e-05
0.000231546
-0.000311856
0.000256716
-7.84149e-05
2.27303e-05
0
0
-4.77888e-05
0.000182689
0.00102595
1.00017
1.0001
1.00016
0.000911559
0.000198131
-6.59969e-05
0
0
0.000273861
-0.000360244
1.0002
1.00176
1.00068
1.002
0.999857
-1.70735e-05
0.000151245
0
0
6.94806e-05
3.60649e-05
1.00055
1.00036
1.00126
1.00015
1.00098
0.000205064
-3.26059e-05
0
0
0.000191132
-0.000113626
1.00003
1.00199
1.00031
1.00212
0.999731
-0.000114454
0.000197197
0
0
-5.43565e-05
0.000152034
0.00107477
0.999903
1.00084
1.00011
0.00105617
0.000272895
-9.83424e-05
0
0
2.0187e-05
-6.55025e-05
0.000246381
-0.000182897
0.000160685
-7.75092e-05
9.72743e-05
-9.78406e-05
3.51448e-05
0
0
-5.02083e-06
1.75426e-05
-8.28295e-05
0.000208127
-5.50296e-05
0.000161367
-3.03738e-05
3.49187e-05
-1.26492e-05
0
0
0
0
0
0
0
0
0
0
0
0
0
0
0
0
0
0
0
0
0
0
0
0
3.79538e-05
-0.000121641
0.000199875
1.77473e-05
-0.000141138
-0.000132167
0.000188214
-6.06905e-05
1.61793e-05
0
0
-0.000107369
0.000340209
-0.000141476
0.000221312
0.00151946
0.000687389
-0.000130337
0.000177175
-4.79234e-05
0
0
0.000281658
-0.000392616
0.999951
1.00188
1.00066
1.00179
1.00031
-7.36064e-05
0.000155111
0
0
-8.63372e-05
0.00059216
1.00215
0.997635
0.999227
0.997732
1.0016
0.000678087
-0.000103209
0
0
-5.56235e-05
0.00112748
1.00078
0.999238
1.00067
0.999676
1.00017
0.00134792
-7.36707e-05
0
0
3.76289e-05
0.000280438
1.00194
0.997612
0.999358
0.997505
1.00197
0.000635706
-0.000114224
0
0
0.000240785
-0.000214808
1.00002
1.00198
1.00042
1.00219
0.999935
-0.000194603
0.000218096
0
0
-0.000113787
0.00032764
-0.000387602
0.000660378
0.00143156
0.000667829
-0.000257043
0.000377111
-0.000136754
0
0
3.88569e-05
-0.000111684
0.000284328
-0.000155982
-9.45382e-05
-0.000161857
0.000238913
-0.000136302
5.00634e-05
0
0
0
0
0
0
0
0
0
0
0
0
0
0
0
0
0
0
0
0
0
0
0
0
-1.67519e-05
2.42022e-05
-9.41112e-05
-0.000170463
-6.89584e-05
-0.000107257
-2.35317e-05
4.57902e-06
-1.13586e-05
0
0
3.81355e-05
-3.63161e-05
0.000546298
0.00136734
0.998107
0.00134371
0.000272642
4.99419e-05
8.79722e-06
0
0
5.49668e-05
0.000147304
1.0006
1.00043
1.00114
1.00067
1.00035
0.000479895
-9.74426e-05
0
0
-0.00012772
0.001252
1.00086
0.999112
1.00091
0.999217
1.00077
0.00123432
-8.76227e-05
0
0
-0.000103219
0.998284
1.00099
1.00075
1.00091
1.00052
1.00115
0.998595
-0.000289369
0
0
-0.000201124
0.00159006
1.00046
0.999423
1.00065
0.999457
1.00024
0.00141594
-9.49351e-05
0
0
0.000103425
-2.29818e-06
1.00069
1.00034
1.00128
1.0004
1.00091
0.000156418
-2.34503e-05
0
0
4.00513e-05
-1.03785e-05
0.000501309
0.00108307
0.99837
0.00119285
0.000179717
0.000117533
1.3538e-05
0
0
-2.55683e-05
3.47549e-05
-0.000142737
-3.96932e-05
-0.000280425
-5.1488e-05
-3.42122e-05
-5.86843e-06
-2.01525e-05
0
0
0
0
0
0
0
0
0
0
0
0
0
0
0
0
0
0
0
0
0
0
0
0
4.1105e-05
-0.000123908
0.000169175
-2.98563e-05
-0.000149994
-3.2463e-05
0.000203581
-6.19811e-05
1.73418e-05
0
0
-0.000119208
0.000357043
-0.000101247
0.000491381
0.00156066
0.000483531
-0.000183221
0.000206552
-6.08655e-05
0
0
0.000297447
-0.00041206
1.0001
1.00156
1.00029
1.00183
1.00038
-0.000200907
0.000213253
0
0
-4.40746e-05
0.000500146
1.002
0.997757
0.999319
0.997648
1.0016
0.000855205
-0.000186614
0
0
-3.97417e-05
0.00115332
1.00058
0.999185
1.00072
0.999597
1.00054
0.00125725
-2.32665e-05
0
0
-3.47015e-05
0.000525594
1.00212
0.99738
0.999472
0.997608
1.00188
0.000821763
-0.000199244
0
0
0.000241189
-0.000286611
1.0003
1.00196
1.00027
1.00199
1.00019
-0.000235584
0.00023351
0
0
-0.000113443
0.000345516
-0.000400976
0.000449988
0.00160545
0.000379508
-9.06496e-05
0.000248088
-8.95525e-05
0
0
4.34574e-05
-0.000129943
0.00030119
-0.000128106
-0.000115912
-8.8789e-05
0.000182444
-9.13968e-05
3.41139e-05
0
0
0
0
0
0
0
0
0
0
0
0
0
0
0
0
0
0
0
0
0
0
0
0
-1.41291e-05
4.58137e-05
-6.84145e-05
0.000195175
3.57155e-05
0.000164779
-6.1319e-05
8.55919e-06
-5.55907e-07
0
0
4.33041e-05
-0.000136427
0.000190511
-0.000162178
4.6207e-05
-0.000133608
0.000189055
-5.00881e-05
1.22816e-05
0
0
-0.000132946
0.000395436
0.000791827
1.00011
1.00084
1.00035
0.000700416
0.000230186
-8.20099e-05
0
0
0.000285064
-0.000398967
1.00027
1.00182
1.00079
1.0018
1.00056
-0.000327683
0.000266822
0
0
4.99042e-05
9.21318e-05
1.00107
1.00042
1.00095
1.00032
1.0004
0.000510798
-0.000157274
0
0
0.000248437
-0.000275398
1.00021
1.00214
1.00059
1.00162
1.00007
-0.000292738
0.000248735
0
0
-1.43462e-05
8.34652e-05
0.000819072
1.00012
1.00075
1.00051
0.000601898
0.000230994
-6.74576e-05
0
0
-1.3865e-05
9.23771e-06
0.000222783
-0.000202523
-2.34888e-05
-0.00019175
0.000262066
-3.54901e-05
3.22694e-06
0
0
3.92832e-06
-7.0986e-07
-9.44913e-05
0.000251292
3.48997e-06
0.000216466
-8.87795e-05
6.31651e-06
1.63865e-06
0
0
0
0
0
0
0
0
0
0
0
0
0
0
0
0
0
0
0
0
0
0
0
0
2.04006e-06
-8.22269e-06
4.84878e-06
-0.000102219
-2.1449e-05
-9.43549e-05
2.59544e-05
9.94765e-07
-1.34479e-06
0
0
-7.22505e-06
2.64853e-05
-2.68285e-05
0.00030852
0.000173435
0.000314969
-9.32549e-05
1.18306e-05
-2.22958e-06
0
0
2.72349e-05
-0.000104452
0.000164975
-0.000284375
0.000143504
-0.000489966
0.000392807
-0.000116017
3.87274e-05
0
0
-0.00010503
0.000327276
-0.000156881
0.000686513
0.00107733
0.000838204
-0.000541165
0.000344461
-0.000118534
0
0
-1.08786e-05
0.000118722
6.72737e-05
0.00129107
0.998766
0.00114395
0.000372092
3.92828e-06
4.51905e-05
0
0
-6.46008e-05
0.000233741
-0.000199488
0.000449611
0.00128192
0.000818667
-0.000205851
0.00025726
-8.18913e-05
0
0
-1.30701e-05
-2.09486e-06
0.00029192
-0.000109181
0.000100338
-0.000444003
0.000400929
-8.64919e-05
2.19864e-05
0
0
2.17052e-05
-4.28078e-05
-7.90457e-05
0.000182399
0.000225752
0.000275491
-7.76625e-05
-2.31127e-05
1.22248e-05
0
0
-7.69198e-06
1.48456e-05
3.22984e-05
-7.59618e-05
-3.32781e-05
-9.18416e-05
2.0064e-05
1.25666e-05
-6.17096e-06
0
0
0
0
0
0
0
0
0
0
0
0
0
0
0
0
0
0
0
0
0
0
0
0
-2.69661e-07
1.95275e-06
1.94016e-06
3.37999e-05
3.74905e-06
2.74238e-05
-3.78087e-06
-2.63335e-06
1.44096e-06
0
0
1.58496e-06
-7.18708e-06
5.82722e-07
-0.000104429
-5.27221e-05
-9.84646e-05
2.00676e-05
1.17212e-06
-1.41648e-06
0
0
-7.18616e-06
3.20587e-05
-4.72274e-05
0.000239971
3.234e-05
0.000323407
-0.000126221
3.22021e-05
-1.0006e-05
0
0
3.6531e-05
-0.000114884
0.000196794
-0.000130087
-0.000100881
-0.000182074
0.000301677
-0.000103013
3.45201e-05
0
0
-6.1939e-06
-1.60428e-05
3.40684e-05
-0.000134009
-0.000208065
-2.59022e-05
-6.75983e-05
1.87419e-05
-2.38458e-05
0
0
2.45585e-05
-8.76439e-05
0.000220377
-0.000103914
-6.96897e-05
-0.000249595
0.000239941
-9.53581e-05
3.05039e-05
0
0
7.05524e-06
-4.32975e-06
-9.71696e-05
0.000170965
-5.51019e-06
0.000298822
-0.000159817
3.33134e-05
-8.45845e-06
0
0
-9.23552e-06
1.86328e-05
2.08915e-05
-5.057e-05
-3.98328e-05
-9.44565e-05
2.9217e-05
8.64859e-06
-4.6677e-06
0
0
3.26478e-06
-6.36827e-06
-8.98319e-06
2.25796e-05
-5.32511e-06
3.14831e-05
-7.49865e-06
-4.69476e-06
2.37931e-06
0
0
0
0
0
0
0
0
0
0
0
0
0
0
0
0
0
0
0
0
0
0
0
0
0
0
0
0
0
0
0
0
0
0
0
0
0
0
0
0
0
0
0
0
0
0
0
0
0
0
0
0
0
0
0
0
0
0
0
0
0
0
0
0
0
0
0
0
0
0
0
0
0
0
0
0
0
0
0
0
0
0
0
0
0
0
0
0
0
0
0
0
0
0
0
0
0
0
0
0
0
0
0
0
0
0
0
0
0
0
0
0
0
0
0
0
0
0
0
0
0
0
0
0
0
0
0
0
0
0
0
0
0
