# vtk DataFile Version 2.0
Square plate test
ASCII
DATASET UNSTRUCTURED_GRID
POINTS 3808 float
0 0 0
1 0 0
2 0 0
3 0 0
4 0 0
5 0 0
6 0 0
7 0 0
8 0 0
9 0 0
10 0 0
0 1 0
1 1 0
2 1 0
3 1 0
4 1 0
5 1 0
6 1 0
7 1 0
8 1 0
9 1 0
10 1 0
0 2 0
1 2 0
2 2 0
3 2 0
4 2 0
5 2 0
6 2 0
7 2 0
8 2 0
9 2 0
10 2 0
0 3 0
1 3 0
2 3 0
3 3 0
4 3 0
5 3 0
6 3 0
7 3 0
8 3 0
9 3 0
10 3 0
0 4 0
1 4 0
2 4 0
3 4 0
8 4 0
9 4 0
10 4 0
0 5 0
1 5 0
2 5 0
3 5 0
8 5 0
9 5 0
10 5 0
0 6 0
1 6 0
2 6 0
3 6 0
8 6 0
9 6 0
10 6 0
0 7 0
1 7 0
2 7 0
3 7 0
7 7 0
8 7 0
9 7 0
10 7 0
0 8 0
1 8 0
2 8 0
3 8 0
4 8 0
5 8 0
6 8 0
7 8 0
8 8 0
9 8 0
10 8 0
0 9 0
1 9 0
2 9 0
3 9 0
4 9 0
5 9 0
6 9 0
7 9 0
8 9 0
9 9 0
10 9 0
0 10 0
1 10 0
2 10 0
3 10 0
4 10 0
5 10 0
6 10 0
7 10 0
8 10 0
9 10 0
10 10 0
0 0 1
1 0 1
2 0 1
3 0 1
4 0 1
5 0 1
6 0 1
7 0 1
8 0 1
9 0 1
10 0 1
0 1 1
1 1 1
2 1 1
3 1 1
4 1 1
5 1 1
6 1 1
7 1 1
8 1 1
9 1 1
10 1 1
0 2 1
1 2 1
2 2 1
3 2 1
4 2 1
5 2 1
6 2 1
7 2 1
8 2 1
9 2 1
10 2 1
0 3 1
1 3 1
2 3 1
3 3 1
4 3 1
5 3 1
6 3 1
7 3 1
8 3 1
9 3 1
10 3 1
0 4 1
1 4 1
2 4 1
3 4 1
8 4 1
9 4 1
10 4 1
0 5 1
1 5 1
2 5 1
3 5 1
8 5 1
9 5 1
10 5 1
0 6 1
1 6 1
2 6 1
3 6 1
8 6 1
9 6 1
10 6 1
0 7 1
1 7 1
2 7 1
3 7 1
7 7 1
8 7 1
9 7 1
10 7 1
0 8 1
1 8 1
2 8 1
3 8 1
4 8 1
5 8 1
6 8 1
7 8 1
8 8 1
9 8 1
10 8 1
0 9 1
1 9 1
2 9 1
3 9 1
4 9 1
5 9 1
6 9 1
7 9 1
8 9 1
9 9 1
10 9 1
0 10 1
1 10 1
2 10 1
3 10 1
4 10 1
5 10 1
6 10 1
7 10 1
8 10 1
9 10 1
10 10 1
0 0 2
1 0 2
2 0 2
3 0 2
4 0 2
5 0 2
6 0 2
7 0 2
8 0 2
9 0 2
10 0 2
0 1 2
1 1 2
2 1 2
3 1 2
4 1 2
5 1 2
6 1 2
7 1 2
8 1 2
9 1 2
10 1 2
0 2 2
1 2 2
2 2 2
3 2 2
4 2 2
5 2 2
6 2 2
7 2 2
8 2 2
9 2 2
10 2 2
0 3 2
1 3 2
2 3 2
3 3 2
4 3 2
5 3 2
6 3 2
7 3 2
8 3 2
9 3 2
10 3 2
0 4 2
1 4 2
2 4 2
3 4 2
8 4 2
9 4 2
10 4 2
0 5 2
1 5 2
2 5 2
3 5 2
8 5 2
9 5 2
10 5 2
0 6 2
1 6 2
2 6 2
3 6 2
8 6 2
9 6 2
10 6 2
0 7 2
1 7 2
2 7 2
3 7 2
7 7 2
8 7 2
9 7 2
10 7 2
0 8 2
1 8 2
2 8 2
3 8 2
4 8 2
5 8 2
6 8 2
7 8 2
8 8 2
9 8 2
10 8 2
0 9 2
1 9 2
2 9 2
3 9 2
4 9 2
5 9 2
6 9 2
7 9 2
8 9 2
9 9 2
10 9 2
0 10 2
1 10 2
2 10 2
3 10 2
4 10 2
5 10 2
6 10 2
7 10 2
8 10 2
9 10 2
10 10 2
0 0 3
1 0 3
2 0 3
3 0 3
4 0 3
5 0 3
6 0 3
7 0 3
8 0 3
9 0 3
10 0 3
0 1 3
1 1 3
2 1 3
3 1 3
4 1 3
5 1 3
6 1 3
7 1 3
8 1 3
9 1 3
10 1 3
0 2 3
1 2 3
2 2 3
3 2 3
4 2 3
5 2 3
6 2 3
7 2 3
8 2 3
9 2 3
10 2 3
0 3 3
1 3 3
2 3 3
3 3 3
4 3 3
5 3 3
6 3 3
7 3 3
8 3 3
9 3 3
10 3 3
0 4 3
1 4 3
2 4 3
3 4 3
8 4 3
9 4 3
10 4 3
0 5 3
1 5 3
2 5 3
3 5 3
8 5 3
9 5 3
10 5 3
0 6 3
1 6 3
2 6 3
3 6 3
8 6 3
9 6 3
10 6 3
0 7 3
1 7 3
2 7 3
3 7 3
7 7 3
8 7 3
9 7 3
10 7 3
0 8 3
1 8 3
2 8 3
3 8 3
4 8 3
5 8 3
6 8 3
7 8 3
8 8 3
9 8 3
10 8 3
0 9 3
1 9 3
2 9 3
3 9 3
4 9 3
5 9 3
6 9 3
7 9 3
8 9 3
9 9 3
10 9 3
0 10 3
1 10 3
2 10 3
3 10 3
4 10 3
5 10 3
6 10 3
7 10 3
8 10 3
9 10 3
10 10 3
0 0 4
1 0 4
2 0 4
3 0 4
4 0 4
5 0 4
6 0 4
7 0 4
8 0 4
9 0 4
10 0 4
0 1 4
1 1 4
2 1 4
3 1 4
4 1 4
5 1 4
6 1 4
7 1 4
8 1 4
9 1 4
10 1 4
0 2 4
1 2 4
2 2 4
3 2 4
4 2 4
5 2 4
6 2 4
7 2 4
8 2 4
9 2 4
10 2 4
0 3 4
1 3 4
2 3 4
3 3 4
4 3 4
5 3 4
6 3 4
7 3 4
8 3 4
9 3 4
10 3 4
0 4 4
1 4 4
2 4 4
3 4 4
8 4 4
9 4 4
10 4 4
0 5 4
1 5 4
2 5 4
3 5 4
8 5 4
9 5 4
10 5 4
0 6 4
1 6 4
2 6 4
3 6 4
8 6 4
9 6 4
10 6 4
0 7 4
1 7 4
2 7 4
3 7 4
7 7 4
8 7 4
9 7 4
10 7 4
0 8 4
1 8 4
2 8 4
3 8 4
4 8 4
5 8 4
6 8 4
7 8 4
8 8 4
9 8 4
10 8 4
0 9 4
1 9 4
2 9 4
3 9 4
4 9 4
5 9 4
6 9 4
7 9 4
8 9 4
9 9 4
10 9 4
0 10 4
1 10 4
2 10 4
3 10 4
4 10 4
5 10 4
6 10 4
7 10 4
8 10 4
9 10 4
10 10 4
0 0 5
1 0 5
2 0 5
3 0 5
4 0 5
5 0 5
6 0 5
7 0 5
8 0 5
9 0 5
10 0 5
0 1 5
1 1 5
2 1 5
3 1 5
4 1 5
5 1 5
6 1 5
7 1 5
8 1 5
9 1 5
10 1 5
0 2 5
1 2 5
2 2 5
3 2 5
4 2 5
5 2 5
6 2 5
7 2 5
8 2 5
9 2 5
10 2 5
0 3 5
1 3 5
2 3 5
3 3 5
4 3 5
5 3 5
6 3 5
7 3 5
8 3 5
9 3 5
10 3 5
0 4 5
1 4 5
2 4 5
3 4 5
4 4 5
5 4 5
6 4 5
7 4 5
8 4 5
9 4 5
10 4 5
0 5 5
1 5 5
2 5 5
3 5 5
4 5 5
5 5 5
6 5 5
7 5 5
8 5 5
9 5 5
10 5 5
0 6 5
1 6 5
2 6 5
3 6 5
4 6 5
5 6 5
6 6 5
7 6 5
8 6 5
9 6 5
10 6 5
0 7 5
1 7 5
2 7 5
3 7 5
4 7 5
5 7 5
6 7 5
7 7 5
8 7 5
9 7 5
10 7 5
0 8 5
1 8 5
2 8 5
3 8 5
4 8 5
5 8 5
6 8 5
7 8 5
8 8 5
9 8 5
10 8 5
0 9 5
1 9 5
2 9 5
3 9 5
4 9 5
5 9 5
6 9 5
7 9 5
8 9 5
9 9 5
10 9 5
0 10 5
1 10 5
2 10 5
3 10 5
4 10 5
5 10 5
6 10 5
7 10 5
8 10 5
9 10 5
10 10 5
0 0 6
1 0 6
2 0 6
3 0 6
4 0 6
5 0 6
6 0 6
7 0 6
8 0 6
9 0 6
10 0 6
0 1 6
1 1 6
2 1 6
3 1 6
4 1 6
5 1 6
6 1 6
7 1 6
8 1 6
9 1 6
10 1 6
0 2 6
1 2 6
2 2 6
3 2 6
4 2 6
5 2 6
6 2 6
7 2 6
8 2 6
9 2 6
10 2 6
0 3 6
1 3 6
2 3 6
3 3 6
4 3 6
5 3 6
6 3 6
7 3 6
8 3 6
9 3 6
10 3 6
0 4 6
1 4 6
2 4 6
3 4 6
4 4 6
5 4 6
6 4 6
7 4 6
8 4 6
9 4 6
10 4 6
0 5 6
1 5 6
2 5 6
3 5 6
4 5 6
5 5 6
6 5 6
7 5 6
8 5 6
9 5 6
10 5 6
0 6 6
1 6 6
2 6 6
3 6 6
4 6 6
5 6 6
6 6 6
7 6 6
8 6 6
9 6 6
10 6 6
0 7 6
1 7 6
2 7 6
3 7 6
4 7 6
5 7 6
6 7 6
7 7 6
8 7 6
9 7 6
10 7 6
0 8 6
1 8 6
2 8 6
3 8 6
4 8 6
5 8 6
6 8 6
7 8 6
8 8 6
9 8 6
10 8 6
0 9 6
1 9 6
2 9 6
3 9 6
4 9 6
5 9 6
6 9 6
7 9 6
8 9 6
9 9 6
10 9 6
0 10 6
1 10 6
2 10 6
3 10 6
4 10 6
5 10 6
6 10 6
7 10 6
8 10 6
9 10 6
10 10 6
0 0 7
1 0 7
2 0 7
3 0 7
4 0 7
5 0 7
6 0 7
7 0 7
8 0 7
9 0 7
10 0 7
0 1 7
1 1 7
2 1 7
3 1 7
4 1 7
5 1 7
6 1 7
7 1 7
8 1 7
9 1 7
10 1 7
0 2 7
1 2 7
2 2 7
3 2 7
4 2 7
5 2 7
6 2 7
7 2 7
8 2 7
9 2 7
10 2 7
0 3 7
1 3 7
2 3 7
3 3 7
4 3 7
5 3 7
6 3 7
7 3 7
8 3 7
9 3 7
10 3 7
0 4 7
1 4 7
2 4 7
3 4 7
4 4 7
5 4 7
6 4 7
7 4 7
8 4 7
9 4 7
10 4 7
0 5 7
1 5 7
2 5 7
3 5 7
4 5 7
5 5 7
6 5 7
7 5 7
8 5 7
9 5 7
10 5 7
0 6 7
1 6 7
2 6 7
3 6 7
4 6 7
5 6 7
6 6 7
7 6 7
8 6 7
9 6 7
10 6 7
0 7 7
1 7 7
2 7 7
3 7 7
4 7 7
5 7 7
6 7 7
7 7 7
8 7 7
9 7 7
10 7 7
0 8 7
1 8 7
2 8 7
3 8 7
4 8 7
5 8 7
6 8 7
7 8 7
8 8 7
9 8 7
10 8 7
0 9 7
1 9 7
2 9 7
3 9 7
4 9 7
5 9 7
6 9 7
7 9 7
8 9 7
9 9 7
10 9 7
0 10 7
1 10 7
2 10 7
3 10 7
4 10 7
5 10 7
6 10 7
7 10 7
8 10 7
9 10 7
10 10 7
0 0 8
1 0 8
2 0 8
3 0 8
4 0 8
5 0 8
6 0 8
7 0 8
8 0 8
9 0 8
10 0 8
0 1 8
1 1 8
2 1 8
3 1 8
4 1 8
5 1 8
6 1 8
7 1 8
8 1 8
9 1 8
10 1 8
0 2 8
1 2 8
2 2 8
3 2 8
4 2 8
5 2 8
6 2 8
7 2 8
8 2 8
9 2 8
10 2 8
0 3 8
1 3 8
2 3 8
3 3 8
4 3 8
5 3 8
6 3 8
7 3 8
8 3 8
9 3 8
10 3 8
0 4 8
1 4 8
2 4 8
3 4 8
4 4 8
5 4 8
6 4 8
7 4 8
8 4 8
9 4 8
10 4 8
0 5 8
1 5 8
2 5 8
3 5 8
4 5 8
5 5 8
6 5 8
7 5 8
8 5 8
9 5 8
10 5 8
0 6 8
1 6 8
2 6 8
3 6 8
4 6 8
5 6 8
6 6 8
7 6 8
8 6 8
9 6 8
10 6 8
0 7 8
1 7 8
2 7 8
3 7 8
4 7 8
5 7 8
6 7 8
7 7 8
8 7 8
9 7 8
10 7 8
0 8 8
1 8 8
2 8 8
3 8 8
4 8 8
5 8 8
6 8 8
7 8 8
8 8 8
9 8 8
10 8 8
0 9 8
1 9 8
2 9 8
3 9 8
4 9 8
5 9 8
6 9 8
7 9 8
8 9 8
9 9 8
10 9 8
0 10 8
1 10 8
2 10 8
3 10 8
4 10 8
5 10 8
6 10 8
7 10 8
8 10 8
9 10 8
10 10 8
0 0 9
1 0 9
2 0 9
3 0 9
4 0 9
5 0 9
6 0 9
7 0 9
8 0 9
9 0 9
10 0 9
0 1 9
1 1 9
2 1 9
3 1 9
4 1 9
5 1 9
6 1 9
7 1 9
8 1 9
9 1 9
10 1 9
0 2 9
1 2 9
2 2 9
3 2 9
4 2 9
5 2 9
6 2 9
7 2 9
8 2 9
9 2 9
10 2 9
0 3 9
1 3 9
2 3 9
3 3 9
4 3 9
5 3 9
6 3 9
7 3 9
8 3 9
9 3 9
10 3 9
0 4 9
1 4 9
2 4 9
3 4 9
4 4 9
5 4 9
6 4 9
7 4 9
8 4 9
9 4 9
10 4 9
0 5 9
1 5 9
2 5 9
3 5 9
4 5 9
5 5 9
6 5 9
7 5 9
8 5 9
9 5 9
10 5 9
0 6 9
1 6 9
2 6 9
3 6 9
4 6 9
5 6 9
6 6 9
7 6 9
8 6 9
9 6 9
10 6 9
0 7 9
1 7 9
2 7 9
3 7 9
4 7 9
5 7 9
6 7 9
7 7 9
8 7 9
9 7 9
10 7 9
0 8 9
1 8 9
2 8 9
3 8 9
4 8 9
5 8 9
6 8 9
7 8 9
8 8 9
9 8 9
10 8 9
0 9 9
1 9 9
2 9 9
3 9 9
4 9 9
5 9 9
6 9 9
7 9 9
8 9 9
9 9 9
10 9 9
0 10 9
1 10 9
2 10 9
3 10 9
4 10 9
5 10 9
6 10 9
7 10 9
8 10 9
9 10 9
10 10 9
0 0 10
1 0 10
2 0 10
3 0 10
4 0 10
5 0 10
6 0 10
7 0 10
8 0 10
9 0 10
10 0 10
0 1 10
1 1 10
2 1 10
3 1 10
4 1 10
5 1 10
6 1 10
7 1 10
8 1 10
9 1 10
10 1 10
0 2 10
1 2 10
2 2 10
3 2 10
4 2 10
5 2 10
6 2 10
7 2 10
8 2 10
9 2 10
10 2 10
0 3 10
1 3 10
2 3 10
3 3 10
4 3 10
5 3 10
6 3 10
7 3 10
8 3 10
9 3 10
10 3 10
0 4 10
1 4 10
2 4 10
3 4 10
4 4 10
5 4 10
6 4 10
7 4 10
8 4 10
9 4 10
10 4 10
0 5 10
1 5 10
2 5 10
3 5 10
4 5 10
5 5 10
6 5 10
7 5 10
8 5 10
9 5 10
10 5 10
0 6 10
1 6 10
2 6 10
3 6 10
4 6 10
5 6 10
6 6 10
7 6 10
8 6 10
9 6 10
10 6 10
0 7 10
1 7 10
2 7 10
3 7 10
4 7 10
5 7 10
6 7 10
7 7 10
8 7 10
9 7 10
10 7 10
0 8 10
1 8 10
2 8 10
3 8 10
4 8 10
5 8 10
6 8 10
7 8 10
8 8 10
9 8 10
10 8 10
0 9 10
1 9 10
2 9 10
3 9 10
4 9 10
5 9 10
6 9 10
7 9 10
8 9 10
9 9 10
10 9 10
0 10 10
1 10 10
2 10 10
3 10 10
4 10 10
5 10 10
6 10 10
7 10 10
8 10 10
9 10 10
10 10 10
3.5 3.5 0.5
4.5 3.5 0.5
3.5 4.5 0.5
4.5 4.5 0.5
3.5 3.5 1.5
4.5 3.5 1.5
3.5 4.5 1.5
4.5 4.5 1.5
3.5 3 0.5
3 3.5 0.5
3.5 3.5 0
4.5 3 0.5
4 3.5 0.5
4.5 3.5 0
3.5 4 0.5
4.5 4 0.5
3.5 4.5 0
4 4.5 0.5
4.5 4.5 0
3 4.5 0.5
3.5 3.5 1
3.5 3 1.5
3 3.5 1.5
4.5 3.5 1
4.5 3 1.5
4 3.5 1.5
3.5 4.5 1
4.5 4.5 1
3.5 4 1.5
4.5 4 1.5
4 4.5 1.5
3 4.5 1.5
3 3 0.5
3.5 3 0
3 3.5 0
4 3 0.5
4.5 3 0
4 3.5 0
3.5 4 0
4 4 0.5
4.5 4 0
4 4.5 0
3 4 0.5
3 4.5 0
3.5 3 1
3 3.5 1
3 3 1.5
4.5 3 1
4 3.5 1
4 3 1.5
3.5 4 1
4.5 4 1
4 4.5 1
4 4 1.5
3 4.5 1
3 4 1.5
3 3 0
4 3 0
4 4 0
3 4 0
3 3 1
4 3 1
4 4 1
3 4 1
5.5 3.5 0.5
5.5 4.5 0.5
5.5 3.5 1.5
5.5 4.5 1.5
5.5 3 0.5
5 3.5 0.5
5.5 3.5 0
5.5 4 0.5
5 4.5 0.5
5.5 4.5 0
5.5 3.5 1
5.5 3 1.5
5 3.5 1.5
5.5 4.5 1
5.5 4 1.5
5 4.5 1.5
5 3 0.5
5.5 3 0
5 3.5 0
5 4 0.5
5.5 4 0
5 4.5 0
5.5 3 1
5 3.5 1
5 3 1.5
5.5 4 1
5 4.5 1
5 4 1.5
5 3 0
5 4 0
5 3 1
5 4 1
3.5 5.5 0.5
4.5 5.5 0.5
3.5 5.5 1.5
4.5 5.5 1.5
3.5 5 0.5
4.5 5 0.5
3.5 5.5 0
4 5.5 0.5
4.5 5.5 0
3 5.5 0.5
3.5 5.5 1
4.5 5.5 1
3.5 5 1.5
4.5 5 1.5
4 5.5 1.5
3 5.5 1.5
3.5 5 0
4 5 0.5
4.5 5 0
4 5.5 0
3 5 0.5
3 5.5 0
3.5 5 1
4.5 5 1
4 5.5 1
4 5 1.5
3 5.5 1
3 5 1.5
4 5 0
3 5 0
4 5 1
3 5 1
5.5 5.5 0.5
5.5 5.5 1.5
5.5 5 0.5
5 5.5 0.5
5.5 5.5 0
5.5 5.5 1
5.5 5 1.5
5 5.5 1.5
5 5 0.5
5.5 5 0
5 5.5 0
5.5 5 1
5 5.5 1
5 5 1.5
5 5 0
5 5 1
3.5 3.5 2.5
4.5 3.5 2.5
3.5 4.5 2.5
3.5 3.5 2
3.5 3 2.5
3 3.5 2.5
4.5 3.5 2
4.5 3 2.5
4 3.5 2.5
3.5 4.5 2
3.5 4 2.5
4.5 4 2.5
4 4.5 2.5
3 4.5 2.5
3.5 3 2
3 3.5 2
3 3 2.5
4.5 3 2
4 3.5 2
4 3 2.5
3.5 4 2
4.5 4 2
4 4.5 2
4 4 2.5
3 4.5 2
3 4 2.5
3 3 2
4 3 2
4 4 2
3 4 2
5.5 3.5 2.5
5.5 3.5 2
5.5 3 2.5
5 3.5 2.5
5.5 4 2.5
5.5 3 2
5 3.5 2
5 3 2.5
5.5 4 2
5 4 2.5
5 3 2
5 4 2
3.5 5.5 2.5
3.5 5.5 2
3.5 5 2.5
4 5.5 2.5
3 5.5 2.5
3.5 5 2
4 5.5 2
4 5 2.5
3 5.5 2
3 5 2.5
4 5 2
3 5 2
6.5 3.5 0.5
6.5 4.5 0.5
6.5 3.5 1.5
6.5 4.5 1.5
6.5 3 0.5
6 3.5 0.5
6.5 3.5 0
6.5 4 0.5
6 4.5 0.5
6.5 4.5 0
6.5 3.5 1
6.5 3 1.5
6 3.5 1.5
6.5 4.5 1
6.5 4 1.5
6 4.5 1.5
6 3 0.5
6.5 3 0
6 3.5 0
6 4 0.5
6.5 4 0
6 4.5 0
6.5 3 1
6 3.5 1
6 3 1.5
6.5 4 1
6 4.5 1
6 4 1.5
6 3 0
6 4 0
6 3 1
6 4 1
6.5 5.5 0.5
6.5 5.5 1.5
6.5 5 0.5
6 5.5 0.5
6.5 5.5 0
6.5 5.5 1
6.5 5 1.5
6 5.5 1.5
6 5 0.5
6.5 5 0
6 5.5 0
6.5 5 1
6 5.5 1
6 5 1.5
6 5 0
6 5 1
6.5 3.5 2.5
6.5 4.5 2.5
6.5 3.5 2
6.5 3 2.5
6 3.5 2.5
6.5 4.5 2
6.5 4 2.5
6 4.5 2.5
6.5 3 2
6 3.5 2
6 3 2.5
6.5 4 2
6 4.5 2
6 4 2.5
6 3 2
6 4 2
6.5 5.5 2.5
6.5 5.5 2
6.5 5 2.5
6.5 5 2
7.5 3.5 0.5
7.5 4.5 0.5
7.5 3.5 1.5
7.5 4.5 1.5
7.5 3 0.5
7 3.5 0.5
7.5 3.5 0
7.5 4 0.5
7 4.5 0.5
7.5 4.5 0
7.5 3.5 1
7.5 3 1.5
7 3.5 1.5
7.5 4.5 1
7.5 4 1.5
7 4.5 1.5
7 3 0.5
7.5 3 0
7 3.5 0
7 4 0.5
7.5 4 0
7 4.5 0
7.5 3 1
7 3.5 1
7 3 1.5
7.5 4 1
7 4.5 1
7 4 1.5
7 3 0
7 4 0
7 3 1
7 4 1
7.5 5.5 0.5
7.5 5.5 1.5
7.5 5 0.5
7 5.5 0.5
7.5 5.5 0
7.5 5.5 1
7.5 5 1.5
7 5.5 1.5
7 5 0.5
7.5 5 0
7 5.5 0
7.5 5 1
7 5.5 1
7 5 1.5
7 5 0
7 5 1
7.5 3.5 2.5
7.5 4.5 2.5
7.5 3.5 2
7.5 3 2.5
7 3.5 2.5
7.5 4.5 2
7.5 4 2.5
7 4.5 2.5
7.5 3 2
7 3.5 2
7 3 2.5
7.5 4 2
7 4.5 2
7 4 2.5
7 3 2
7 4 2
7.5 5.5 2.5
7.5 5.5 2
7.5 5 2.5
7 5.5 2.5
7.5 5 2
7 5.5 2
7 5 2.5
7 5 2
8 3.5 0.5
8 4.5 0.5
8 3.5 1.5
8 4.5 1.5
8 3 0.5
8 3.5 0
8 4 0.5
8 4.5 0
8 3.5 1
8 3 1.5
8 4.5 1
8 4 1.5
8 3 0
8 4 0
8 3 1
8 4 1
8 5.5 0.5
8 5.5 1.5
8 5 0.5
8 5.5 0
8 5.5 1
8 5 1.5
8 5 0
8 5 1
8 3.5 2.5
8 4.5 2.5
8 3.5 2
8 3 2.5
8 4.5 2
8 4 2.5
8 3 2
8 4 2
8 5.5 2.5
8 5.5 2
8 5 2.5
8 5 2
3.5 6.5 0.5
4.5 6.5 0.5
3.5 6.5 1.5
4.5 6.5 1.5
3.5 6 0.5
4.5 6 0.5
3.5 6.5 0
4 6.5 0.5
4.5 6.5 0
3 6.5 0.5
3.5 6.5 1
4.5 6.5 1
3.5 6 1.5
4.5 6 1.5
4 6.5 1.5
3 6.5 1.5
3.5 6 0
4 6 0.5
4.5 6 0
4 6.5 0
3 6 0.5
3 6.5 0
3.5 6 1
4.5 6 1
4 6.5 1
4 6 1.5
3 6.5 1
3 6 1.5
4 6 0
3 6 0
4 6 1
3 6 1
5.5 6.5 0.5
5.5 6.5 1.5
5.5 6 0.5
5 6.5 0.5
5.5 6.5 0
5.5 6.5 1
5.5 6 1.5
5 6.5 1.5
5 6 0.5
5.5 6 0
5 6.5 0
5.5 6 1
5 6.5 1
5 6 1.5
5 6 0
5 6 1
3.5 6.5 2.5
4.5 6.5 2.5
3.5 6.5 2
4.5 6.5 2
3.5 6 2.5
4 6.5 2.5
3 6.5 2.5
3.5 6 2
4 6.5 2
4 6 2.5
3 6.5 2
3 6 2.5
4 6 2
3 6 2
5.5 6.5 2.5
5.5 6.5 2
5 6.5 2.5
5 6.5 2
6.5 6.5 0.5
6.5 6.5 1.5
6.5 6 0.5
6 6.5 0.5
6.5 6.5 0
6.5 6.5 1
6.5 6 1.5
6 6.5 1.5
6 6 0.5
6.5 6 0
6 6.5 0
6.5 6 1
6 6.5 1
6 6 1.5
6 6 0
6 6 1
6.5 6.5 2.5
6.5 6.5 2
6.5 6 2.5
6 6.5 2.5
6.5 6 2
6 6.5 2
6 6 2.5
6 6 2
7.5 6.5 0.5
7.5 6.5 1.5
7.5 6 0.5
7 6.5 0.5
7.5 6.5 0
7.5 6.5 1
7.5 6 1.5
7 6.5 1.5
7 6 0.5
7.5 6 0
7 6.5 0
7.5 6 1
7 6.5 1
7 6 1.5
7 6 0
7 6 1
7.5 6.5 2.5
7.5 6.5 2
7.5 6 2.5
7 6.5 2.5
7.5 6 2
7 6.5 2
7 6 2.5
7 6 2
8 6.5 0.5
8 6.5 1.5
8 6 0.5
8 6.5 0
8 6.5 1
8 6 1.5
8 6 0
8 6 1
8 6.5 2.5
8 6.5 2
8 6 2.5
8 6 2
3.5 7.5 0.5
4.5 7.5 0.5
3.5 7.5 1.5
4.5 7.5 1.5
3.5 7 0.5
4.5 7 0.5
3.5 7.5 0
4 7.5 0.5
4.5 7.5 0
3 7.5 0.5
3.5 7.5 1
4.5 7.5 1
3.5 7 1.5
4.5 7 1.5
4 7.5 1.5
3 7.5 1.5
3.5 7 0
4 7 0.5
4.5 7 0
4 7.5 0
3 7 0.5
3 7.5 0
3.5 7 1
4.5 7 1
4 7.5 1
4 7 1.5
3 7.5 1
3 7 1.5
4 7 0
3 7 0
4 7 1
3 7 1
5.5 7.5 0.5
5.5 7.5 1.5
5.5 7 0.5
5 7.5 0.5
5.5 7.5 0
5.5 7.5 1
5.5 7 1.5
5 7.5 1.5
5 7 0.5
5.5 7 0
5 7.5 0
5.5 7 1
5 7.5 1
5 7 1.5
5 7 0
5 7 1
3.5 7.5 2.5
4.5 7.5 2.5
3.5 7.5 2
4.5 7.5 2
3.5 7 2.5
4.5 7 2.5
4 7.5 2.5
3 7.5 2.5
3.5 7 2
4.5 7 2
4 7.5 2
4 7 2.5
3 7.5 2
3 7 2.5
4 7 2
3 7 2
5.5 7.5 2.5
5.5 7.5 2
5.5 7 2.5
5 7.5 2.5
5.5 7 2
5 7.5 2
5 7 2.5
5 7 2
6.5 7.5 0.5
6.5 7.5 1.5
6.5 7 0.5
6 7.5 0.5
6.5 7.5 0
6.5 7.5 1
6.5 7 1.5
6 7.5 1.5
6 7 0.5
6.5 7 0
6 7.5 0
6.5 7 1
6 7.5 1
6 7 1.5
6 7 0
6 7 1
6.5 7.5 2.5
6.5 7.5 2
6.5 7 2.5
6 7.5 2.5
6.5 7 2
6 7.5 2
6 7 2.5
6 7 2
7.5 7 0.5
7 7.5 0.5
7.5 7 1.5
7 7.5 1.5
7 7 0.5
7.5 7 0
7 7.5 0
7.5 7 1
7 7.5 1
7 7 1.5
7 7 0
7 7 1
7.5 7 2.5
7 7.5 2.5
7.5 7 2
7 7.5 2
7 7 2.5
7 7 2
8 7 0.5
8 7 1.5
8 7 0
8 7 1
8 7 2.5
8 7 2
3.5 8 0.5
4.5 8 0.5
3.5 8 1.5
4.5 8 1.5
3.5 8 0
4 8 0.5
4.5 8 0
3 8 0.5
3.5 8 1
4.5 8 1
4 8 1.5
3 8 1.5
4 8 0
3 8 0
4 8 1
3 8 1
5.5 8 0.5
5.5 8 1.5
5 8 0.5
5.5 8 0
5.5 8 1
5 8 1.5
5 8 0
5 8 1
3.5 8 2.5
4.5 8 2.5
3.5 8 2
4.5 8 2
4 8 2.5
3 8 2.5
4 8 2
3 8 2
5.5 8 2.5
5.5 8 2
5 8 2.5
5 8 2
6.5 8 0.5
6.5 8 1.5
6 8 0.5
6.5 8 0
6.5 8 1
6 8 1.5
6 8 0
6 8 1
6.5 8 2.5
6.5 8 2
6 8 2.5
6 8 2
7 8 0.5
7 8 1.5
7 8 0
7 8 1
7 8 2.5
7 8 2
3.5 3.5 3.5
4.5 3.5 3.5
3.5 4.5 3.5
4.5 4.5 3.5
3.5 3.5 3
3.5 3 3.5
3 3.5 3.5
4.5 3.5 3
4.5 3 3.5
4 3.5 3.5
3.5 4.5 3
3.5 4 3.5
4.5 4 3.5
4 4.5 3.5
3 4.5 3.5
3.5 3 3
3 3.5 3
3 3 3.5
4.5 3 3
4 3.5 3
4 3 3.5
3.5 4 3
4.5 4 3
4 4.5 3
4 4 3.5
3 4.5 3
3 4 3.5
3 3 3
4 3 3
4 4 3
3 4 3
5.5 3.5 3.5
5.5 4.5 3.5
5.5 3.5 3
5.5 3 3.5
5 3.5 3.5
5.5 4 3.5
5 4.5 3.5
5.5 3 3
5 3.5 3
5 3 3.5
5.5 4 3
5 4 3.5
5 3 3
5 4 3
3.5 5.5 3.5
4.5 5.5 3.5
3.5 5.5 3
3.5 5 3.5
4.5 5 3.5
4 5.5 3.5
3 5.5 3.5
3.5 5 3
4 5.5 3
4 5 3.5
3 5.5 3
3 5 3.5
4 5 3
3 5 3
5.5 5.5 3.5
5.5 5 3.5
5 5.5 3.5
5 5 3.5
6.5 3.5 3.5
6.5 4.5 3.5
6.5 3.5 3
6.5 3 3.5
6 3.5 3.5
6.5 4.5 3
6.5 4 3.5
6 4.5 3.5
6.5 3 3
6 3.5 3
6 3 3.5
6.5 4 3
6 4.5 3
6 4 3.5
6 3 3
6 4 3
6.5 5.5 3.5
6.5 5.5 3
6.5 5 3.5
6 5.5 3.5
6.5 5 3
6 5 3.5
7.5 3.5 3.5
7.5 4.5 3.5
7.5 3.5 3
7.5 3 3.5
7 3.5 3.5
7.5 4.5 3
7.5 4 3.5
7 4.5 3.5
7.5 3 3
7 3.5 3
7 3 3.5
7.5 4 3
7 4.5 3
7 4 3.5
7 3 3
7 4 3
7.5 5.5 3.5
7.5 5.5 3
7.5 5 3.5
7 5.5 3.5
7.5 5 3
7 5.5 3
7 5 3.5
7 5 3
8 3.5 3.5
8 4.5 3.5
8 3.5 3
8 3 3.5
8 4.5 3
8 4 3.5
8 3 3
8 4 3
8 5.5 3.5
8 5.5 3
8 5 3.5
8 5 3
3.5 6.5 3.5
4.5 6.5 3.5
3.5 6.5 3
4.5 6.5 3
3.5 6 3.5
4.5 6 3.5
4 6.5 3.5
3 6.5 3.5
3.5 6 3
4 6.5 3
4 6 3.5
3 6.5 3
3 6 3.5
4 6 3
3 6 3
5.5 6.5 3.5
5.5 6.5 3
5.5 6 3.5
5 6.5 3.5
5 6.5 3
5 6 3.5
6.5 6.5 3.5
6.5 6.5 3
6.5 6 3.5
6 6.5 3.5
6.5 6 3
6 6.5 3
6 6 3.5
6 6 3
7.5 6.5 3.5
7.5 6.5 3
7.5 6 3.5
7 6.5 3.5
7.5 6 3
7 6.5 3
7 6 3.5
7 6 3
8 6.5 3.5
8 6.5 3
8 6 3.5
8 6 3
3.5 7.5 3.5
4.5 7.5 3.5
3.5 7.5 3
4.5 7.5 3
3.5 7 3.5
4.5 7 3.5
4 7.5 3.5
3 7.5 3.5
3.5 7 3
4.5 7 3
4 7.5 3
4 7 3.5
3 7.5 3
3 7 3.5
4 7 3
3 7 3
5.5 7.5 3.5
5.5 7.5 3
5.5 7 3.5
5 7.5 3.5
5.5 7 3
5 7.5 3
5 7 3.5
5 7 3
6.5 7.5 3.5
6.5 7.5 3
6.5 7 3.5
6 7.5 3.5
6.5 7 3
6 7.5 3
6 7 3.5
6 7 3
7.5 7 3.5
7 7.5 3.5
7.5 7 3
7 7.5 3
7 7 3.5
7 7 3
8 7 3.5
8 7 3
3.5 8 3.5
4.5 8 3.5
3.5 8 3
4.5 8 3
4 8 3.5
3 8 3.5
4 8 3
3 8 3
5.5 8 3.5
5.5 8 3
5 8 3.5
5 8 3
6.5 8 3.5
6.5 8 3
6 8 3.5
6 8 3
7 8 3.5
7 8 3
3.5 3.5 4.5
4.5 3.5 4.5
3.5 4.5 4.5
4.5 4.5 4.5
3.5 3.5 4
3.5 3 4.5
3 3.5 4.5
4.5 3.5 4
4.5 3 4.5
4 3.5 4.5
3.5 4.5 4
4.5 4.5 4
3.5 4 4.5
4.5 4 4.5
4 4.5 4.5
3 4.5 4.5
3.5 3 4
3 3.5 4
3 3 4.5
4.5 3 4
4 3.5 4
4 3 4.5
3.5 4 4
4.5 4 4
4 4.5 4
4 4 4.5
3 4.5 4
3 4 4.5
3 3 4
4 3 4
4 4 4
3 4 4
5.5 3.5 4.5
5.5 4.5 4.5
5.5 3.5 4
5.5 3 4.5
5 3.5 4.5
5.5 4.5 4
5.5 4 4.5
5 4.5 4.5
5.5 3 4
5 3.5 4
5 3 4.5
5.5 4 4
5 4.5 4
5 4 4.5
5 3 4
5 4 4
3.5 5.5 4.5
4.5 5.5 4.5
3.5 5.5 4
4.5 5.5 4
3.5 5 4.5
4.5 5 4.5
4 5.5 4.5
3 5.5 4.5
3.5 5 4
4.5 5 4
4 5.5 4
4 5 4.5
3 5.5 4
3 5 4.5
4 5 4
3 5 4
5.5 5.5 4.5
5.5 5.5 4
5.5 5 4.5
5 5.5 4.5
5.5 5 4
5 5.5 4
5 5 4.5
5 5 4
6.5 3.5 4.5
6.5 4.5 4.5
6.5 3.5 4
6.5 3 4.5
6 3.5 4.5
6.5 4.5 4
6.5 4 4.5
6 4.5 4.5
6.5 3 4
6 3.5 4
6 3 4.5
6.5 4 4
6 4.5 4
6 4 4.5
6 3 4
6 4 4
6.5 5.5 4.5
6.5 5.5 4
6.5 5 4.5
6 5.5 4.5
6.5 5 4
6 5.5 4
6 5 4.5
6 5 4
7.5 3.5 4.5
7.5 4.5 4.5
7.5 3.5 4
7.5 3 4.5
7 3.5 4.5
7.5 4.5 4
7.5 4 4.5
7 4.5 4.5
7.5 3 4
7 3.5 4
7 3 4.5
7.5 4 4
7 4.5 4
7 4 4.5
7 3 4
7 4 4
7.5 5.5 4.5
7.5 5.5 4
7.5 5 4.5
7 5.5 4.5
7.5 5 4
7 5.5 4
7 5 4.5
7 5 4
8 3.5 4.5
8 4.5 4.5
8 3.5 4
8 3 4.5
8 4.5 4
8 4 4.5
8 3 4
8 4 4
8 5.5 4.5
8 5.5 4
8 5 4.5
8 5 4
3.5 6.5 4.5
4.5 6.5 4.5
3.5 6.5 4
4.5 6.5 4
3.5 6 4.5
4.5 6 4.5
4 6.5 4.5
3 6.5 4.5
3.5 6 4
4.5 6 4
4 6.5 4
4 6 4.5
3 6.5 4
3 6 4.5
4 6 4
3 6 4
5.5 6.5 4.5
5.5 6.5 4
5.5 6 4.5
5 6.5 4.5
5.5 6 4
5 6.5 4
5 6 4.5
5 6 4
6.5 6.5 4.5
6.5 6.5 4
6.5 6 4.5
6 6.5 4.5
6.5 6 4
6 6.5 4
6 6 4.5
6 6 4
7.5 6.5 4.5
7.5 6.5 4
7.5 6 4.5
7 6.5 4.5
7.5 6 4
7 6.5 4
7 6 4.5
7 6 4
8 6.5 4.5
8 6.5 4
8 6 4.5
8 6 4
3.5 7.5 4.5
4.5 7.5 4.5
3.5 7.5 4
4.5 7.5 4
3.5 7 4.5
4.5 7 4.5
4 7.5 4.5
3 7.5 4.5
3.5 7 4
4.5 7 4
4 7.5 4
4 7 4.5
3 7.5 4
3 7 4.5
4 7 4
3 7 4
5.5 7.5 4.5
5.5 7.5 4
5.5 7 4.5
5 7.5 4.5
5.5 7 4
5 7.5 4
5 7 4.5
5 7 4
6.5 7.5 4.5
6.5 7.5 4
6.5 7 4.5
6 7.5 4.5
6.5 7 4
6 7.5 4
6 7 4.5
6 7 4
7.5 7 4.5
7 7.5 4.5
7.5 7 4
7 7.5 4
7 7 4.5
7 7 4
8 7 4.5
8 7 4
3.5 8 4.5
4.5 8 4.5
3.5 8 4
4.5 8 4
4 8 4.5
3 8 4.5
4 8 4
3 8 4
5.5 8 4.5
5.5 8 4
5 8 4.5
5 8 4
6.5 8 4.5
6.5 8 4
6 8 4.5
6 8 4
7 8 4.5
7 8 4
3.5 3.5 5
4.5 3.5 5
3.5 4.5 5
4.5 4.5 5
3.5 3 5
3 3.5 5
4.5 3 5
4 3.5 5
3.5 4 5
4.5 4 5
4 4.5 5
3 4.5 5
3 3 5
4 3 5
4 4 5
3 4 5
5.5 3.5 5
5.5 4.5 5
5.5 3 5
5 3.5 5
5.5 4 5
5 4.5 5
5 3 5
5 4 5
3.5 5.5 5
4.5 5.5 5
3.5 5 5
4.5 5 5
4 5.5 5
3 5.5 5
4 5 5
3 5 5
5.5 5.5 5
5.5 5 5
5 5.5 5
5 5 5
6.5 3.5 5
6.5 4.5 5
6.5 3 5
6 3.5 5
6.5 4 5
6 4.5 5
6 3 5
6 4 5
6.5 5.5 5
6.5 5 5
6 5.5 5
6 5 5
7.5 3.5 5
7.5 4.5 5
7.5 3 5
7 3.5 5
7.5 4 5
7 4.5 5
7 3 5
7 4 5
7.5 5.5 5
7.5 5 5
7 5.5 5
7 5 5
8 3.5 5
8 4.5 5
8 3 5
8 4 5
8 5.5 5
8 5 5
3.5 6.5 5
4.5 6.5 5
3.5 6 5
4.5 6 5
4 6.5 5
3 6.5 5
4 6 5
3 6 5
5.5 6.5 5
5.5 6 5
5 6.5 5
5 6 5
6.5 6.5 5
6.5 6 5
6 6.5 5
6 6 5
7.5 6.5 5
7.5 6 5
7 6.5 5
7 6 5
8 6.5 5
8 6 5
3.5 7.5 5
4.5 7.5 5
3.5 7 5
4.5 7 5
4 7.5 5
3 7.5 5
4 7 5
3 7 5
5.5 7.5 5
5.5 7 5
5 7.5 5
5 7 5
6.5 7.5 5
6.5 7 5
6 7.5 5
6 7 5
7.5 7 5
7 7.5 5
7 7 5
8 7 5
3.5 8 5
4.5 8 5
4 8 5
3 8 5
5.5 8 5
5 8 5
6.5 8 5
6 8 5
7 8 5
5.25 4.25 2.25
4.75 4.25 1.75
5.25 4.25 1.75
4.75 4.25 2.25
5.75 4.25 1.75
5.75 4.25 2.25
5.75 4.75 1.75
5.25 4.75 1.75
5.75 4.75 2.25
5.25 4.75 2.25
4.75 4.75 1.75
4.75 4.75 2.25
4.75 4.25 2.75
5.25 4.25 2.75
5.75 4.25 2.75
5.75 4.75 2.75
5.25 4.75 2.75
4.75 4.75 2.75
4.75 4 1.75
5 4.25 1.75
4.75 4.25 2
5.25 4 1.75
5.25 4.25 2
4.75 4 2.25
5 4.25 2.25
5.25 4 2.25
5.75 4 1.75
5.5 4.25 1.75
5.75 4.25 2
5.75 4 2.25
5.5 4.25 2.25
5.25 4.5 1.75
5.75 4.5 1.75
5.5 4.75 1.75
5.75 4.75 2
5.25 4.75 2
5.25 4.5 2.25
5.75 4.5 2.25
5.5 4.75 2.25
4.75 4.5 1.75
5 4.75 1.75
4.75 4.75 2
4.75 4.5 2.25
5 4.75 2.25
4.75 4 2.75
4.75 4.25 2.5
5 4.25 2.75
5.25 4 2.75
5.25 4.25 2.5
5.75 4 2.75
5.75 4.25 2.5
5.5 4.25 2.75
5.75 4.75 2.5
5.25 4.75 2.5
5.25 4.5 2.75
5.75 4.5 2.75
5.5 4.75 2.75
4.75 4.75 2.5
4.75 4.5 2.75
5 4.75 2.75
5 4 1.75
4.75 4 2
5 4.25 2
5.25 4 2
5 4 2.25
5.5 4 1.75
5.75 4 2
5.5 4.25 2
5.5 4 2.25
5.5 4.5 1.75
5.25 4.5 2
5.75 4.5 2
5.5 4.75 2
5.5 4.5 2.25
5 4.5 1.75
4.75 4.5 2
5 4.75 2
5 4.5 2.25
4.75 4 2.5
5 4 2.75
5 4.25 2.5
5.25 4 2.5
5.75 4 2.5
5.5 4 2.75
5.5 4.25 2.5
5.25 4.5 2.5
5.75 4.5 2.5
5.5 4.75 2.5
5.5 4.5 2.75
4.75 4.5 2.5
5 4.75 2.5
5 4.5 2.75
5 4 2
5.5 4 2
5.5 4.5 2
5 4.5 2
5 4 2.5
5.5 4 2.5
5.5 4.5 2.5
5 4.5 2.5
6.25 4.75 1.75
6.25 4.75 2.25
6.25 4.75 2.75
6 4.25 1.75
6 4.25 2.25
6 4.75 1.75
6.25 4.5 1.75
6.25 4.75 2
6 4.75 2.25
6.25 4.5 2.25
6 4.25 2.75
6 4.75 2.75
6.25 4.75 2.5
6.25 4.5 2.75
6 4 1.75
6 4.25 2
6 4 2.25
6 4.5 1.75
6 4.75 2
6.25 4.5 2
6 4.5 2.25
6 4 2.75
6 4.25 2.5
6 4.75 2.5
6 4.5 2.75
6.25 4.5 2.5
6 4 2
6 4.5 2
6 4 2.5
6 4.5 2.5
5.75 5.25 1.75
6.25 5.25 1.75
5.75 5.25 2.25
6.25 5.25 2.25
5.25 5.25 1.75
5.25 5.25 2.25
5.75 5.25 2.75
6.25 5.25 2.75
5.25 5.25 2.75
5.75 5 1.75
6.25 5 1.75
6 5.25 1.75
5.75 5.25 2
6.25 5.25 2
5.75 5 2.25
6.25 5 2.25
6 5.25 2.25
5.25 5 1.75
5.5 5.25 1.75
5.25 5.25 2
5.25 5 2.25
5.5 5.25 2.25
5.75 5 2.75
6.25 5 2.75
5.75 5.25 2.5
6 5.25 2.75
6.25 5.25 2.5
5.25 5 2.75
5.5 5.25 2.75
6 5 1.75
5.75 5 2
6.25 5 2
6 5.25 2
6 5 2.25
5.5 5 1.75
5.25 5 2
5.5 5.25 2
5.5 5 2.25
5.75 5 2.5
6 5 2.75
6.25 5 2.5
6 5.25 2.5
5.5 5 2.75
5.5 5.25 2.5
6 5 2
5.5 5 2
6 5 2.5
5.5 5 2.5
4.75 5.25 1.75
4.75 5.25 2.25
4.75 5.25 2.75
4.75 5 1.75
5 5.25 1.75
4.75 5.25 2
4.75 5 2.25
5 5.25 2.25
4.75 5 2.75
5 5.25 2.75
5 5 1.75
4.75 5 2
5 5.25 2
5 5 2.25
4.75 5 2.5
5 5 2.75
5 5 2
4.75 4.25 3.25
5.25 4.25 3.25
5.75 4.25 3.25
5.75 4.75 3.25
5.25 4.75 3.25
4.75 4.75 3.25
4.75 4.25 3
5.25 4.25 3
4.75 4 3.25
5 4.25 3.25
5.25 4 3.25
5.75 4.25 3
5.75 4 3.25
5.5 4.25 3.25
5.75 4.75 3
5.25 4.75 3
5.25 4.5 3.25
5.75 4.5 3.25
5.5 4.75 3.25
4.75 4.75 3
4.75 4.5 3.25
5 4.75 3.25
4.75 4 3
5 4.25 3
5.25 4 3
5 4 3.25
5.75 4 3
5.5 4.25 3
5.5 4 3.25
5.25 4.5 3
5.75 4.5 3
5.5 4.75 3
5.5 4.5 3.25
4.75 4.5 3
5 4.75 3
5 4.5 3.25
5 4 3
5.5 4 3
5.5 4.5 3
5 4.5 3
6.25 4.75 3.25
6 4.25 3.25
6.25 4.75 3
6 4.75 3.25
6.25 4.5 3.25
6 4.25 3
6 4 3.25
6 4.75 3
6.25 4.5 3
6 4.5 3.25
6 4 3
6 4.5 3
5.75 5.25 3.25
6.25 5.25 3.25
5.25 5.25 3.25
5.75 5.25 3
6.25 5.25 3
5.75 5 3.25
6.25 5 3.25
6 5.25 3.25
5.25 5.25 3
5.25 5 3.25
5.5 5.25 3.25
5.75 5 3
6.25 5 3
6 5.25 3
6 5 3.25
5.25 5 3
5.5 5.25 3
5.5 5 3.25
6 5 3
5.5 5 3
4.75 5.25 3.25
4.75 5.25 3
4.75 5 3.25
5 5.25 3.25
4.75 5 3
5 5.25 3
5 5 3.25
5 5 3
4.75 4.25 1.5
5.25 4.25 1.5
5.75 4.25 1.5
5.75 4.75 1.5
5.25 4.75 1.5
4.75 4.75 1.5
4.75 4 1.5
5 4.25 1.5
5.25 4 1.5
5.75 4 1.5
5.5 4.25 1.5
5.25 4.5 1.5
5.75 4.5 1.5
5.5 4.75 1.5
4.75 4.5 1.5
5 4.75 1.5
5 4 1.5
5.5 4 1.5
5.5 4.5 1.5
5 4.5 1.5
6.25 4.75 1.5
6 4.25 1.5
6 4.75 1.5
6.25 4.5 1.5
6 4 1.5
6 4.5 1.5
5.75 5.25 1.5
6.25 5.25 1.5
5.25 5.25 1.5
5.75 5 1.5
6.25 5 1.5
6 5.25 1.5
5.25 5 1.5
5.5 5.25 1.5
6 5 1.5
5.5 5 1.5
4.75 5.25 1.5
4.75 5 1.5
5 5.25 1.5
5 5 1.5
4.25 4.25 1.75
4.25 4.25 2.25
4.25 4.75 1.75
4.25 4.75 2.25
4.25 4.25 2.75
4.25 4.75 2.75
4.25 4 1.75
4.5 4.25 1.75
4.25 4.25 2
4.25 4 2.25
4.5 4.25 2.25
4.25 4.5 1.75
4.5 4.75 1.75
4.25 4.75 2
4.25 4.5 2.25
4.5 4.75 2.25
4.25 4 2.75
4.25 4.25 2.5
4.5 4.25 2.75
4.25 4.75 2.5
4.25 4.5 2.75
4.5 4.75 2.75
4.5 4 1.75
4.25 4 2
4.5 4.25 2
4.5 4 2.25
4.5 4.5 1.75
4.25 4.5 2
4.5 4.75 2
4.5 4.5 2.25
4.25 4 2.5
4.5 4 2.75
4.5 4.25 2.5
4.25 4.5 2.5
4.5 4.75 2.5
4.5 4.5 2.75
4.5 4 2
4.5 4.5 2
4.5 4 2.5
4.5 4.5 2.5
4.25 5.25 1.75
4.25 5.25 2.25
4.25 5.25 2.75
4.25 5 1.75
4.5 5.25 1.75
4.25 5.25 2
4.25 5 2.25
4.5 5.25 2.25
4.25 5 2.75
4.25 5.25 2.5
4.5 5.25 2.75
4.5 5 1.75
4.25 5 2
4.5 5.25 2
4.5 5 2.25
4.25 5 2.5
4.5 5 2.75
4.5 5.25 2.5
4.5 5 2
4.5 5 2.5
4.25 4.25 3.25
4.25 4.75 3.25
4.25 4.25 3
4.25 4 3.25
4.5 4.25 3.25
4.25 4.75 3
4.25 4.5 3.25
4.5 4.75 3.25
4.25 4 3
4.5 4.25 3
4.5 4 3.25
4.25 4.5 3
4.5 4.75 3
4.5 4.5 3.25
4.5 4 3
4.5 4.5 3
4.25 5.25 3.25
4.25 5.25 3
4.25 5 3.25
4.5 5.25 3.25
4.25 5 3
4.5 5.25 3
4.5 5 3.25
4.5 5 3
4.25 4.25 1.5
4.25 4.75 1.5
4.25 4 1.5
4.5 4.25 1.5
4.25 4.5 1.5
4.5 4.75 1.5
4.5 4 1.5
4.5 4.5 1.5
4.25 5.25 1.5
4.25 5 1.5
4.5 5.25 1.5
4.5 5 1.5
4.75 5.75 1.75
4.25 5.75 1.75
4.75 5.75 2.25
4.25 5.75 2.25
4.75 5.75 2.75
4.25 5.75 2.75
4 4.75 1.75
4 5.25 1.75
4 4.75 2.25
4 5.25 2.25
4.25 5.5 1.75
4.75 5.5 1.75
4.5 5.75 1.75
4.75 5.75 2
4.25 5.75 2
4.25 5.5 2.25
4.75 5.5 2.25
4.5 5.75 2.25
4 5.75 1.75
4 5.75 2.25
4 4.75 2.75
4 5.25 2.75
4.75 5.75 2.5
4.25 5.75 2.5
4.25 5.5 2.75
4.75 5.5 2.75
4.5 5.75 2.75
4 5.75 2.75
4 5 1.75
4 4.75 2
4 5.25 2
4 5 2.25
4.5 5.5 1.75
4.25 5.5 2
4.75 5.5 2
4.5 5.75 2
4.5 5.5 2.25
4 5.5 1.75
4 5.75 2
4 5.5 2.25
4 4.75 2.5
4 5 2.75
4 5.25 2.5
4.25 5.5 2.5
4.75 5.5 2.5
4.5 5.75 2.5
4.5 5.5 2.75
4 5.75 2.5
4 5.5 2.75
4 5 2
4.5 5.5 2
4 5.5 2
4 5 2.5
4.5 5.5 2.5
4 5.5 2.5
5.25 5.75 1.75
5.25 5.75 2.25
5.25 5.75 2.75
5 5.75 1.75
5.25 5.5 1.75
5.25 5.75 2
5 5.75 2.25
5.25 5.5 2.25
5 5.75 2.75
5.25 5.75 2.5
5.25 5.5 2.75
5 5.5 1.75
5 5.75 2
5.25 5.5 2
5 5.5 2.25
5 5.75 2.5
5 5.5 2.75
5.25 5.5 2.5
5 5.5 2
5 5.5 2.5
4.75 6.25 1.75
5.25 6.25 1.75
4.75 6.25 2.25
5.25 6.25 2.25
4.25 6.25 1.75
4.25 6.25 2.25
4.75 6.25 2.75
5.25 6.25 2.75
4.25 6.25 2.75
4.75 6 1.75
5.25 6 1.75
5 6.25 1.75
4.75 6.25 2
5.25 6.25 2
4.75 6 2.25
5.25 6 2.25
5 6.25 2.25
4.25 6 1.75
4.5 6.25 1.75
4.25 6.25 2
4.25 6 2.25
4.5 6.25 2.25
4.75 6 2.75
5.25 6 2.75
4.75 6.25 2.5
5 6.25 2.75
5.25 6.25 2.5
4.25 6 2.75
4.25 6.25 2.5
4.5 6.25 2.75
5 6 1.75
4.75 6 2
5.25 6 2
5 6.25 2
5 6 2.25
4.5 6 1.75
4.25 6 2
4.5 6.25 2
4.5 6 2.25
4.75 6 2.5
5 6 2.75
5.25 6 2.5
5 6.25 2.5
4.25 6 2.5
4.5 6 2.75
4.5 6.25 2.5
5 6 2
4.5 6 2
5 6 2.5
4.5 6 2.5
4 6.25 1.75
4 6.25 2.25
4 6.25 2.75
4 6 1.75
4 6.25 2
4 6 2.25
4 6 2.75
4 6.25 2.5
4 6 2
4 6 2.5
4.75 5.75 3.25
4.25 5.75 3.25
4 4.75 3.25
4 5.25 3.25
4.75 5.75 3
4.25 5.75 3
4.25 5.5 3.25
4.75 5.5 3.25
4.5 5.75 3.25
4 5.75 3.25
4 4.75 3
4 5.25 3
4 5 3.25
4.25 5.5 3
4.75 5.5 3
4.5 5.75 3
4.5 5.5 3.25
4 5.75 3
4 5.5 3.25
4 5 3
4.5 5.5 3
4 5.5 3
5.25 5.75 3.25
5.25 5.75 3
5 5.75 3.25
5.25 5.5 3.25
5 5.75 3
5.25 5.5 3
5 5.5 3.25
5 5.5 3
4.75 6.25 3.25
5.25 6.25 3.25
4.25 6.25 3.25
4.75 6.25 3
5.25 6.25 3
4.75 6 3.25
5.25 6 3.25
5 6.25 3.25
4.25 6.25 3
4.25 6 3.25
4.5 6.25 3.25
4.75 6 3
5.25 6 3
5 6.25 3
5 6 3.25
4.25 6 3
4.5 6.25 3
4.5 6 3.25
5 6 3
4.5 6 3
4 6.25 3.25
4 6.25 3
4 6 3.25
4 6 3
4.75 5.75 1.5
4.25 5.75 1.5
4 4.75 1.5
4 5.25 1.5
4.25 5.5 1.5
4.75 5.5 1.5
4.5 5.75 1.5
4 5.75 1.5
4 5 1.5
4.5 5.5 1.5
4 5.5 1.5
5.25 5.75 1.5
5 5.75 1.5
5.25 5.5 1.5
5 5.5 1.5
4.75 6.25 1.5
5.25 6.25 1.5
4.25 6.25 1.5
4.75 6 1.5
5.25 6 1.5
5 6.25 1.5
4.25 6 1.5
4.5 6.25 1.5
5 6 1.5
4.5 6 1.5
4 6.25 1.5
4 6 1.5
4 4.25 1.75
4 4.25 2.25
4 4.25 2.75
4 4.5 1.75
4 4.25 2
4 4.5 2.25
4 4.25 2.5
4 4.5 2.75
4 4.5 2
4 4.5 2.5
4 4.25 3.25
4 4.25 3
4 4.5 3.25
4 4.5 3
4 4.25 1.5
4 4.5 1.5
5.75 5.75 1.75
5.75 5.75 2.25
5.75 5.75 2.75
5.75 5.5 1.75
5.5 5.75 1.75
5.75 5.75 2
5.75 5.5 2.25
5.5 5.75 2.25
5.75 5.75 2.5
5.75 5.5 2.75
5.5 5.75 2.75
5.5 5.5 1.75
5.75 5.5 2
5.5 5.75 2
5.5 5.5 2.25
5.75 5.5 2.5
5.5 5.75 2.5
5.5 5.5 2.75
5.5 5.5 2
5.5 5.5 2.5
6.25 5.75 1.75
6.25 5.75 2.25
6.25 5.75 2.75
6 5.75 1.75
6.25 5.5 1.75
6.25 5.75 2
6 5.75 2.25
6.25 5.5 2.25
6 5.75 2.75
6.25 5.75 2.5
6.25 5.5 2.75
6 5.5 1.75
6 5.75 2
6.25 5.5 2
6 5.5 2.25
6 5.75 2.5
6 5.5 2.75
6.25 5.5 2.5
6 5.5 2
6 5.5 2.5
5.75 6.25 1.75
5.75 6.25 2.25
5.75 6.25 2.75
5.75 6 1.75
6.25 6 1.75
6 6.25 1.75
5.75 6.25 2
5.75 6 2.25
6.25 6 2.25
6 6.25 2.25
5.5 6.25 1.75
5.5 6.25 2.25
5.75 6 2.75
6.25 6 2.75
5.75 6.25 2.5
6 6.25 2.75
5.5 6.25 2.75
6 6 1.75
5.75 6 2
6.25 6 2
6 6.25 2
6 6 2.25
5.5 6 1.75
5.5 6.25 2
5.5 6 2.25
5.75 6 2.5
6 6 2.75
6.25 6 2.5
6 6.25 2.5
5.5 6 2.75
5.5 6.25 2.5
6 6 2
5.5 6 2
6 6 2.5
5.5 6 2.5
5.75 5.75 3.25
5.75 5.75 3
5.75 5.5 3.25
5.5 5.75 3.25
5.75 5.5 3
5.5 5.75 3
5.5 5.5 3.25
5.5 5.5 3
6.25 5.75 3.25
6.25 5.75 3
6 5.75 3.25
6.25 5.5 3.25
6 5.75 3
6.25 5.5 3
6 5.5 3.25
6 5.5 3
5.75 6.25 3.25
5.75 6.25 3
5.75 6 3.25
6.25 6 3.25
6 6.25 3.25
5.5 6.25 3.25
5.75 6 3
6.25 6 3
6 6.25 3
6 6 3.25
5.5 6.25 3
5.5 6 3.25
6 6 3
5.5 6 3
5.75 5.75 1.5
5.75 5.5 1.5
5.5 5.75 1.5
5.5 5.5 1.5
6.25 5.75 1.5
6 5.75 1.5
6.25 5.5 1.5
6 5.5 1.5
5.75 6.25 1.5
5.75 6 1.5
6.25 6 1.5
6 6.25 1.5
5.5 6.25 1.5
6 6 1.5
5.5 6 1.5
6.5 4.75 1.75
6.5 5.25 1.75
6.5 4.75 2.25
6.5 5.25 2.25
6.5 5.75 1.75
6.5 5.75 2.25
6.5 4.75 2.75
6.5 5.25 2.75
6.5 5.75 2.75
6.5 5 1.75
6.5 4.75 2
6.5 5.25 2
6.5 5 2.25
6.5 5.5 1.75
6.5 5.75 2
6.5 5.5 2.25
6.5 4.75 2.5
6.5 5 2.75
6.5 5.25 2.5
6.5 5.75 2.5
6.5 5.5 2.75
6.5 5 2
6.5 5.5 2
6.5 5 2.5
6.5 5.5 2.5
6.5 6 1.75
6.5 6 2.25
6.5 6 2.75
6.5 6 2
6.5 6 2.5
6.5 4.75 3.25
6.5 5.25 3.25
6.5 5.75 3.25
6.5 4.75 3
6.5 5.25 3
6.5 5 3.25
6.5 5.75 3
6.5 5.5 3.25
6.5 5 3
6.5 5.5 3
6.5 6 3.25
6.5 6 3
6.5 4.75 1.5
6.5 5.25 1.5
6.5 5.75 1.5
6.5 5 1.5
6.5 5.5 1.5
6.5 6 1.5
6.5 4.5 1.75
6.5 4.5 2.25
6.5 4.5 2.75
6.5 4.5 2
6.5 4.5 2.5
6.5 4.5 3.25
6.5 4.5 3
6.5 4.5 1.5
5.25 6.5 1.75
5.75 6.5 1.75
5.25 6.5 2.25
5.75 6.5 2.25
4.75 6.5 1.75
4.75 6.5 2.25
5.25 6.5 2.75
5.75 6.5 2.75
4.75 6.5 2.75
5.5 6.5 1.75
5.25 6.5 2
5.75 6.5 2
5.5 6.5 2.25
5 6.5 1.75
4.75 6.5 2
5 6.5 2.25
5.25 6.5 2.5
5.75 6.5 2.5
5.5 6.5 2.75
4.75 6.5 2.5
5 6.5 2.75
5.5 6.5 2
5 6.5 2
5.5 6.5 2.5
5 6.5 2.5
6 6.5 1.75
6 6.5 2.25
6 6.5 2.75
6 6.5 2
6 6.5 2.5
5.25 6.5 3.25
5.75 6.5 3.25
4.75 6.5 3.25
5.25 6.5 3
5.75 6.5 3
5.5 6.5 3.25
4.75 6.5 3
5 6.5 3.25
5.5 6.5 3
5 6.5 3
6 6.5 3.25
6 6.5 3
5.25 6.5 1.5
5.75 6.5 1.5
4.75 6.5 1.5
5.5 6.5 1.5
5 6.5 1.5
6 6.5 1.5
4.25 6.5 1.75
4.25 6.5 2.25
4.25 6.5 2.75
4.5 6.5 1.75
4.25 6.5 2
4.5 6.5 2.25
4.25 6.5 2.5
4.5 6.5 2.75
4.5 6.5 2
4.5 6.5 2.5
4.25 6.5 3.25
4.25 6.5 3
4.5 6.5 3.25
4.5 6.5 3
4.25 6.5 1.5
4.5 6.5 1.5
4.75 4.25 3.5
5.25 4.25 3.5
5.75 4.25 3.5
5.75 4.75 3.5
5.25 4.75 3.5
4.75 4.75 3.5
4.75 4 3.5
5 4.25 3.5
5.25 4 3.5
5.75 4 3.5
5.5 4.25 3.5
5.25 4.5 3.5
5.75 4.5 3.5
5.5 4.75 3.5
4.75 4.5 3.5
5 4.75 3.5
5 4 3.5
5.5 4 3.5
5.5 4.5 3.5
5 4.5 3.5
6.25 4.75 3.5
6 4.25 3.5
6 4.75 3.5
6.25 4.5 3.5
6 4 3.5
6 4.5 3.5
5.75 5.25 3.5
6.25 5.25 3.5
5.25 5.25 3.5
5.75 5 3.5
6.25 5 3.5
6 5.25 3.5
5.25 5 3.5
5.5 5.25 3.5
6 5 3.5
5.5 5 3.5
4.75 5.25 3.5
4.75 5 3.5
5 5.25 3.5
5 5 3.5
4.25 4.25 3.5
4.25 4.75 3.5
4.25 4 3.5
4.5 4.25 3.5
4.25 4.5 3.5
4.5 4.75 3.5
4.5 4 3.5
4.5 4.5 3.5
4.25 5.25 3.5
4.25 5 3.5
4.5 5.25 3.5
4.5 5 3.5
4.75 5.75 3.5
4.25 5.75 3.5
4 4.75 3.5
4 5.25 3.5
4.25 5.5 3.5
4.75 5.5 3.5
4.5 5.75 3.5
4 5.75 3.5
4 5 3.5
4.5 5.5 3.5
4 5.5 3.5
5.25 5.75 3.5
5 5.75 3.5
5.25 5.5 3.5
5 5.5 3.5
4.75 6.25 3.5
5.25 6.25 3.5
4.25 6.25 3.5
4.75 6 3.5
5.25 6 3.5
5 6.25 3.5
4.25 6 3.5
4.5 6.25 3.5
5 6 3.5
4.5 6 3.5
4 6.25 3.5
4 6 3.5
4 4.25 3.5
4 4.5 3.5
5.75 5.75 3.5
5.75 5.5 3.5
5.5 5.75 3.5
5.5 5.5 3.5
6.25 5.75 3.5
6 5.75 3.5
6.25 5.5 3.5
6 5.5 3.5
5.75 6.25 3.5
5.75 6 3.5
6.25 6 3.5
6 6.25 3.5
5.5 6.25 3.5
6 6 3.5
5.5 6 3.5
6.5 4.75 3.5
6.5 5.25 3.5
6.5 5.75 3.5
6.5 5 3.5
6.5 5.5 3.5
6.5 6 3.5
6.5 4.5 3.5
5.25 6.5 3.5
5.75 6.5 3.5
4.75 6.5 3.5
5.5 6.5 3.5
5 6.5 3.5
6 6.5 3.5
4.25 6.5 3.5
4.5 6.5 3.5
4 4 1.75
4 4 2.25
4 4 1.5
4 4 2
4 4 2.75
4 4 2.5
4 4 3.25
4 4 3
4 4 3.5
4 6.5 1.75
4 6.5 2.25
4 6.5 1.5
4 6.5 2
4 6.5 2.75
4 6.5 2.5
4 6.5 3.25
4 6.5 3
4 6.5 3.5
5.125 5.125 2.375
5.125 4.875 2.375
4.875 4.875 2.375
4.875 5.125 2.375
5.375 4.875 2.375
5.375 5.125 2.375
5.375 5.375 2.375
5.125 5.375 2.375
4.875 5.375 2.375
5.125 4.875 2.625
4.875 4.875 2.625
4.875 5.125 2.625
5.125 5.125 2.625
5.375 4.875 2.625
5.375 5.125 2.625
5.375 5.375 2.625
5.125 5.375 2.625
4.875 5.375 2.625
5.125 4.875 2.25
5.125 5 2.375
5 4.875 2.375
4.875 4.875 2.25
4.875 5 2.375
4.875 5.125 2.25
5 5.125 2.375
5.125 5.125 2.25
5.375 4.875 2.25
5.375 5 2.375
5.25 4.875 2.375
5.375 5.125 2.25
5.25 5.125 2.375
5.375 5.375 2.25
5.125 5.375 2.25
5.125 5.25 2.375
5.375 5.25 2.375
5.25 5.375 2.375
4.875 5.375 2.25
4.875 5.25 2.375
5 5.375 2.375
5.125 4.875 2.5
5.125 5 2.625
5 4.875 2.625
4.875 4.875 2.5
4.875 5 2.625
4.875 5.125 2.5
5 5.125 2.625
5.125 5.125 2.5
5.375 4.875 2.5
5.375 5 2.625
5.25 4.875 2.625
5.375 5.125 2.5
5.25 5.125 2.625
5.375 5.375 2.5
5.125 5.375 2.5
5.125 5.25 2.625
5.375 5.25 2.625
5.25 5.375 2.625
4.875 5.375 2.5
4.875 5.25 2.625
5 5.375 2.625
5.125 5 2.25
5 4.875 2.25
5 5 2.375
4.875 5 2.25
5 5.125 2.25
5.375 5 2.25
5.25 4.875 2.25
5.25 5 2.375
5.25 5.125 2.25
5.125 5.25 2.25
5.375 5.25 2.25
5.25 5.375 2.25
5.25 5.25 2.375
4.875 5.25 2.25
5 5.375 2.25
5 5.25 2.375
5.125 5 2.5
5 4.875 2.5
5 5 2.625
4.875 5 2.5
5 5.125 2.5
5.375 5 2.5
5.25 4.875 2.5
5.25 5 2.625
5.25 5.125 2.5
5.125 5.25 2.5
5.375 5.25 2.5
5.25 5.375 2.5
5.25 5.25 2.625
4.875 5.25 2.5
5 5.375 2.5
5 5.25 2.625
5 5 2.25
5.25 5 2.25
5.25 5.25 2.25
5 5.25 2.25
5 5 2.5
5.25 5 2.5
5.25 5.25 2.5
5 5.25 2.5
5.5 4.875 2.375
5.5 5.125 2.375
5.5 5.375 2.375
5.5 4.875 2.625
5.5 5.125 2.625
5.5 5.375 2.625
5.5 4.875 2.25
5.5 5 2.375
5.5 5.125 2.25
5.5 5.375 2.25
5.5 5.25 2.375
5.5 4.875 2.5
5.5 5 2.625
5.5 5.125 2.5
5.5 5.375 2.5
5.5 5.25 2.625
5.5 5 2.25
5.5 5.25 2.25
5.5 5 2.5
5.5 5.25 2.5
5.375 5.5 2.375
5.125 5.5 2.375
5.375 5.5 2.625
5.125 5.5 2.625
5.375 5.5 2.25
5.5 5.5 2.375
5.125 5.5 2.25
5.25 5.5 2.375
5.375 5.5 2.5
5.5 5.5 2.625
5.125 5.5 2.5
5.25 5.5 2.625
5.5 5.5 2.25
5.25 5.5 2.25
5.5 5.5 2.5
5.25 5.5 2.5
4.875 5.5 2.375
4.875 5.5 2.625
4.875 5.5 2.25
5 5.5 2.375
4.875 5.5 2.5
5 5.5 2.625
5 5.5 2.25
5 5.5 2.5
5.125 4.875 2.75
4.875 4.875 2.75
4.875 5.125 2.75
5.125 5.125 2.75
5.375 4.875 2.75
5.375 5.125 2.75
5.375 5.375 2.75
5.125 5.375 2.75
4.875 5.375 2.75
5.125 5 2.75
5 4.875 2.75
4.875 5 2.75
5 5.125 2.75
5.375 5 2.75
5.25 4.875 2.75
5.25 5.125 2.75
5.125 5.25 2.75
5.375 5.25 2.75
5.25 5.375 2.75
4.875 5.25 2.75
5 5.375 2.75
5 5 2.75
5.25 5 2.75
5.25 5.25 2.75
5 5.25 2.75
5.5 4.875 2.75
5.5 5.125 2.75
5.5 5.375 2.75
5.5 5 2.75
5.5 5.25 2.75
5.375 5.5 2.75
5.125 5.5 2.75
5.5 5.5 2.75
5.25 5.5 2.75
4.875 5.5 2.75
5 5.5 2.75
5.125 4.75 2.375
5.375 4.75 2.375
5.125 4.75 2.625
5.375 4.75 2.625
5.125 4.75 2.25
5.375 4.75 2.25
5.25 4.75 2.375
5.5 4.75 2.375
5.125 4.75 2.5
5.375 4.75 2.5
5.25 4.75 2.625
5.5 4.75 2.625
5.25 4.75 2.25
5.5 4.75 2.25
5.25 4.75 2.5
5.5 4.75 2.5
4.875 4.75 2.375
4.875 4.75 2.625
5 4.75 2.375
4.875 4.75 2.25
5 4.75 2.625
4.875 4.75 2.5
5 4.75 2.25
5 4.75 2.5
5.125 4.75 2.75
5.375 4.75 2.75
5.25 4.75 2.75
5.5 4.75 2.75
4.875 4.75 2.75
5 4.75 2.75
4.625 5.125 2.375
4.625 5.375 2.375
4.625 5.125 2.625
4.625 5.375 2.625
4.625 5 2.375
4.5 5.125 2.375
4.625 5.125 2.25
4.75 4.875 2.375
4.75 5.125 2.375
4.625 5.375 2.25
4.625 5.25 2.375
4.75 5.375 2.375
4.5 5.375 2.375
4.625 5 2.625
4.625 5.125 2.5
4.5 5.125 2.625
4.75 4.875 2.625
4.75 5.125 2.625
4.625 5.375 2.5
4.625 5.25 2.625
4.75 5.375 2.625
4.5 5.375 2.625
4.625 5 2.25
4.5 5 2.375
4.5 5.125 2.25
4.75 4.875 2.25
4.75 5 2.375
4.75 5.125 2.25
4.625 5.25 2.25
4.75 5.375 2.25
4.75 5.25 2.375
4.5 5.375 2.25
4.5 5.25 2.375
4.625 5 2.5
4.5 5 2.625
4.5 5.125 2.5
4.75 4.875 2.5
4.75 5 2.625
4.75 5.125 2.5
4.625 5.25 2.5
4.75 5.375 2.5
4.75 5.25 2.625
4.5 5.375 2.5
4.5 5.25 2.625
4.5 5 2.25
4.75 5 2.25
4.75 5.25 2.25
4.5 5.25 2.25
4.5 5 2.5
4.75 5 2.5
4.75 5.25 2.5
4.5 5.25 2.5
4.625 5.5 2.375
4.625 5.5 2.625
4.625 5.5 2.25
4.75 5.5 2.375
4.625 5.5 2.5
4.75 5.5 2.625
4.75 5.5 2.25
4.75 5.5 2.5
4.5 5.5 2.375
4.5 5.5 2.625
4.5 5.5 2.25
4.5 5.5 2.5
4.625 5.125 2.75
4.625 5.375 2.75
4.625 5 2.75
4.5 5.125 2.75
4.75 4.875 2.75
4.75 5.125 2.75
4.625 5.25 2.75
4.75 5.375 2.75
4.5 5.375 2.75
4.5 5 2.75
4.75 5 2.75
4.75 5.25 2.75
4.5 5.25 2.75
4.625 5.5 2.75
4.75 5.5 2.75
4.5 5.5 2.75
4.75 4.75 2.375
4.75 4.75 2.625
4.75 4.75 2.25
4.75 4.75 2.5
4.75 4.75 2.75
POINT_DATA 3808
SCALARS pact float 1
LOOKUP_TABLE default
0
0
0
0
0
0
0
0
0
0
0
0
0
0
0
0
0
0
0
0
0
0
0
0
0
0
0
0
0
0
0
0
0
0
0
0
0
0
0
0
0
0
0
0
0
0
0
0
0
0
0
0
0
0
0
0
0
0
0
0
0
0
0
0
0
0
0
0
0
0
0
0
0
0
0
0
0
0
0
0
0
0
0
0
0
0
0
0
0
0
0
0
0
0
0
0
0
0
0
0
0
0
0
0
0
0
0
0
0
0
0
0
0
0
0
0
0
0
2.10825e-06
-2.56488e-06
-3.93736e-05
2.28896e-05
4.42475e-05
3.35928e-05
-2.23182e-05
1.38347e-06
1.79646e-06
0
0
-4.66617e-06
2.6856e-06
0.000125348
-8.88951e-05
-0.000192678
-0.000123298
7.67272e-05
-4.34232e-06
-4.11507e-06
0
0
-2.44275e-05
0.000100303
-0.000619244
0.000627711
0.000949544
0.000638142
-0.000434982
0.000114339
-2.68687e-05
0
0
2.67918e-05
-0.000118365
0.000657781
-0.000140868
3.38204e-05
0
0
2.98208e-05
-0.000138575
0.000731444
0.000446239
-9.18578e-05
0
0
3.53064e-05
-0.000141749
0.000697933
-0.000128125
3.87681e-05
0
0
-4.50724e-05
0.000155401
-0.000733965
-0.00040768
0.000119158
-3.26568e-05
0
0
2.03765e-06
-1.4012e-05
0.000164623
-0.000225513
0.000487866
-0.000199186
0.000116607
-2.59429e-05
6.2919e-06
0
0
1.35726e-06
-1.33879e-07
-4.39984e-05
6.1376e-05
-0.000103583
5.38278e-05
-3.14446e-05
5.78995e-06
-6.54547e-07
0
0
0
0
0
0
0
0
0
0
0
0
0
0
0
0
0
0
0
0
0
0
0
0
-1.92462e-06
-2.13615e-06
0.000116626
-0.000133835
-0.000103929
-0.000128082
3.7332e-05
4.13079e-06
-7.54252e-06
0
0
2.2216e-06
1.85718e-05
-0.000377154
0.00042288
0.000453921
0.000419059
-0.000151165
-8.09877e-06
1.81174e-05
0
0
9.35901e-05
-0.000347981
0.00174755
-0.00181224
-0.00186547
-0.00154779
0.000998272
-0.000252403
5.36685e-05
0
0
-0.000142841
0.00048589
-0.00161077
0.000280915
-5.51781e-05
0
0
-9.66185e-05
0.00041125
-0.00173286
-0.0011163
0.000215281
0
0
-0.000124777
0.000442769
-0.00153274
0.000184529
-4.57836e-05
0
0
8.51925e-05
-0.000322859
0.00166363
-7.12497e-05
-7.81015e-05
1.45474e-05
0
0
7.57366e-06
5.83417e-07
-0.000344814
0.000378428
-0.00120028
0.000332108
-8.56573e-05
4.0247e-05
-1.08821e-05
0
0
-7.96294e-06
1.3157e-05
8.76971e-05
-9.46397e-05
0.000242522
-7.87891e-05
1.75676e-05
-1.02613e-05
1.94861e-06
0
0
0
0
0
0
0
0
0
0
0
0
0
0
0
0
0
0
0
0
0
0
0
0
2.1067e-05
-1.75827e-05
-0.000245774
-9.22939e-05
-0.000157867
-6.58979e-05
-0.000182388
-2.00255e-05
2.21096e-05
0
0
-2.73959e-05
-2.20028e-05
0.000831296
0.000667147
0.000618422
0.000543015
0.000667766
-1.17273e-05
-3.54171e-05
0
0
-0.000302326
0.00103793
-0.00332966
0.998293
0.99873
0.998233
-0.00282522
0.000893382
-0.000236416
0
0
-2.34137e-05
0.000558813
0.996714
-0.000676628
0.000193152
0
0
3.3026e-05
0.000134161
1.00136
0.00205282
-0.000444293
0
0
2.97105e-05
0.000331283
0.997845
-0.000358899
0.000106026
0
0
-0.000259304
0.000949314
-0.00342798
0.000634238
0.000245547
-6.156e-05
0
0
-1.18187e-05
-5.88447e-05
0.000944086
-0.00106127
0.00234539
-0.000685539
0.000296043
-0.000157292
4.81964e-05
0
0
1.80226e-05
-1.53172e-05
-0.000252375
0.000286027
-0.000521075
0.000170961
-6.82831e-05
4.14782e-05
-1.58944e-05
0
0
0
0
0
0
0
0
0
0
0
0
0
0
0
0
0
0
0
0
0
0
0
0
7.66429e-06
-5.87896e-05
0.00012968
0.00010602
0.000255848
0.000175283
-8.95978e-05
7.22928e-06
-3.57553e-05
0
0
-4.17685e-05
0.000208677
-1.90748e-05
-4.52903e-05
0.000437382
-0.000189881
0.000626301
7.61681e-05
6.34607e-05
0
0
0.000278284
-0.00041806
1.00059
1.00498
1.00366
1.00532
0.998448
-0.00112033
0.000317518
0
0
0.000201933
-0.000208164
1.00595
0.000682389
-0.000182869
0
0
0.000242622
0.000486568
1.00229
-0.003388
0.000715202
0
0
0.000208351
-0.000165319
1.00556
0.000218166
-5.64534e-05
0
0
0.000131874
-3.47965e-05
1.00001
0.987998
0.00018316
-3.05347e-05
0
0
-3.20517e-05
0.000252308
-0.00147254
0.00153018
-0.00336403
0.000649629
0.000125421
0.000776629
-0.000229972
0
0
-2.98163e-05
2.00895e-05
0.000397202
-0.000387404
0.000773168
-0.000151728
-2.11747e-05
-0.000224939
5.98918e-05
0
0
0
0
0
0
0
0
0
0
0
0
0
0
0
0
0
0
0
0
0
0
0
0
-1.50956e-05
2.04099e-05
-0.000133101
2.77335e-05
0.000147452
6.89358e-05
-0.000216695
6.57179e-05
-3.56425e-05
0
0
1.44914e-05
2.21334e-05
0.000589459
0.0010178
0.997901
0.000917198
0.000842342
-3.80873e-05
4.86613e-05
0
0
-4.1389e-05
0.00046925
1.00005
1.00165
1.00256
1.00221
0.999196
-0.000253609
0.000128596
0
0
6.77543e-05
0.000946327
1.00084
0.998478
1.0022
0.996997
1.00395
-7.03664e-05
-9.7722e-05
0
0
6.81063e-05
0.997879
1.00258
1.00209
1.00359
1.00287
1.00253
0.996911
0.000598882
0
0
0.000186688
0.000664847
1.00197
0.996715
1.00366
0.995782
1.00496
-0.000190498
-4.50338e-05
0
0
-0.000198904
0.000920186
0.998148
1.0047
1.00209
1.00477
0.997781
-0.000394802
0.000150644
0
0
6.52618e-05
-3.24832e-05
5.81337e-05
-0.000186138
0.996811
0.000270077
-0.000415557
0.000183366
2.77761e-06
0
0
-2.3349e-05
1.68874e-05
7.31868e-05
1.51117e-05
0.000431681
-6.99485e-05
0.000159588
-1.02986e-05
-2.53866e-05
0
0
0
0
0
0
0
0
0
0
0
0
0
0
0
0
0
0
0
0
0
0
0
0
1.75304e-05
-7.83041e-05
0.000287174
-0.000158821
-0.000216765
-0.000191761
0.000326299
-0.000142926
5.08081e-05
0
0
-5.9415e-05
0.000234244
-0.000332967
0.000792541
0.00175414
0.000860001
-0.000455901
0.000386662
-0.000136759
0
0
0.000290464
-0.000347022
1.00059
1.00125
1
1.00133
1.00073
-0.000376588
0.000283223
0
0
2.71354e-05
0.000307881
1.00214
0.997789
0.999005
0.998185
1.00102
0.00130051
-0.000223595
0
0
-0.000156741
0.00147851
0.999987
0.998967
0.999704
0.998796
0.999817
0.00214774
-0.000399119
0
0
-6.70092e-05
0.000574869
1.00208
0.99819
0.998366
0.998565
1.0004
0.00102868
-0.000134445
0
0
0.000369727
-0.000555567
1.00082
1.00081
0.999955
1.00077
1.00116
-9.28407e-05
0.000203988
0
0
-0.00015098
0.000436729
-0.000370438
0.000971496
0.00233512
0.000936738
-0.000295635
0.000305521
-0.000118388
0
0
5.00087e-05
-0.00014552
0.000266441
-0.00016304
-0.000433929
-0.000183979
0.000232039
-0.00010507
3.86159e-05
0
0
0
0
0
0
0
0
0
0
0
0
0
0
0
0
0
0
0
0
0
0
0
0
1.37743e-06
1.13167e-05
-0.000112346
0.000225869
-6.90977e-06
0.0002587
-0.000123736
3.83577e-05
-1.23972e-05
0
0
2.58457e-07
-3.78219e-05
0.000276555
-0.000223687
0.00015018
-0.00030823
0.000342308
-0.000112821
3.79617e-05
0
0
-6.10145e-05
0.000167346
0.000860519
1.00053
1.00105
1.00065
0.00040771
0.000349371
-0.000126216
0
0
0.000198555
-0.000137319
0.999984
1.00185
1.00055
1.00176
1.00048
-0.000373588
0.000237516
0
0
2.74275e-05
0.000114413
1.00113
1.00052
1.00169
1.00076
1.00105
-5.94312e-05
5.27011e-05
0
0
0.000228358
-0.00025085
0.999905
1.00159
1.00121
1.00153
1.00067
-0.000328344
0.000214926
0
0
-0.000131391
0.000345563
0.000529779
1.00066
1.00114
1.00078
0.000582455
0.000162739
-6.48159e-05
0
0
5.45864e-05
-0.000159441
0.000289068
-0.000308529
-0.000299581
-0.000394977
0.000250018
-0.000103183
3.9787e-05
0
0
-1.77778e-05
5.33541e-05
-0.000112492
0.000212331
0.000115949
0.000233957
-7.77999e-05
3.21186e-05
-9.47619e-06
0
0
0
0
0
0
0
0
0
0
0
0
0
0
0
0
0
0
0
0
0
0
0
0
-5.45517e-06
9.18098e-06
4.0313e-05
-0.000101393
-2.25087e-05
-6.90251e-05
3.23551e-05
-3.79526e-06
3.8811e-07
0
0
1.19713e-05
-1.78552e-05
-0.000105449
0.000310355
0.000171733
0.000234471
-0.000106269
1.85673e-05
-5.46083e-06
0
0
1.31186e-05
-3.67815e-05
0.000259299
-0.000425885
-3.38604e-07
-0.000221661
0.000395209
-0.000123033
4.5048e-05
0
0
-4.653e-05
0.00016261
-0.000132112
0.00054044
0.00142598
0.000424059
-0.000237129
0.000341644
-9.72393e-05
0
0
2.75402e-05
4.23023e-05
0.000125637
0.000992174
0.998252
0.00117286
-0.000190385
0.000329397
-6.53273e-05
0
0
-7.70127e-05
0.000257563
-0.000126309
0.000659012
0.00101303
0.000727082
-0.000623197
0.000352641
-9.0208e-05
0
0
3.14133e-05
-9.01714e-05
0.000338043
-0.000474398
9.71805e-05
-0.000539987
0.000487529
-8.30289e-05
3.12674e-05
0
0
-1.16069e-05
3.72939e-05
-0.000111846
0.000351296
0.00022901
0.000385976
-0.000148198
3.54331e-05
-1.40571e-05
0
0
2.71165e-06
-1.0665e-05
4.62823e-05
-0.000106976
-1.58738e-05
-0.000117509
4.98229e-05
-1.09945e-05
2.04162e-06
0
0
0
0
0
0
0
0
0
0
0
0
0
0
0
0
0
0
0
0
0
0
0
0
2.16125e-06
-3.79681e-06
-1.31566e-05
3.60768e-05
-8.60198e-06
1.77488e-05
-6.11541e-06
-3.83939e-07
9.37415e-07
0
0
-4.77467e-06
7.53809e-06
3.51948e-05
-0.00011148
-2.02239e-05
-6.65683e-05
2.52773e-05
-1.74639e-06
-6.15633e-07
0
0
-5.01224e-06
1.28668e-05
-9.51853e-05
0.000317647
3.61011e-05
0.000204857
-0.000121845
3.20855e-05
-1.13527e-05
0
0
1.84318e-05
-6.13296e-05
0.00021575
-0.000131004
-0.000113518
-4.17059e-05
0.000207005
-0.000109629
2.84248e-05
0
0
-1.77707e-05
7.13134e-06
1.09455e-05
5.25673e-05
-0.000164805
-4.82169e-05
0.000125089
-0.000108864
1.80378e-05
0
0
2.56769e-05
-8.69128e-05
0.000190903
-0.000144847
3.44195e-05
-0.000182878
0.000374925
-0.000127503
3.24409e-05
0
0
-1.06525e-05
3.07207e-05
-0.000121961
0.000298043
9.59162e-06
0.000346497
-0.00017846
2.7652e-05
-1.13378e-05
0
0
4.9119e-06
-1.50122e-05
3.86542e-05
-0.000112917
-5.28787e-05
-0.000131237
4.68357e-05
-1.21835e-05
5.22069e-06
0
0
-9.13436e-07
3.91775e-06
-1.64606e-05
3.25761e-05
-8.66271e-06
3.99093e-05
-1.58289e-05
4.12292e-06
-5.44807e-07
0
0
0
0
0
0
0
0
0
0
0
0
0
0
0
0
0
0
0
0
0
0
0
0
0
0
0
0
0
0
0
0
0
0
0
0
0
0
0
0
0
0
0
0
0
0
0
0
0
0
0
0
0
0
0
0
0
0
0
0
0
0
0
0
0
0
0
0
0
0
0
0
0
0
0
0
0
0
0
0
0
0
0
0
0
0
0
0
0
0
0
0
0
0
0
0
0
0
0
0
0
0
0
0
0
0
0
0
0
0
0
0
0
0
0
0
0
0
0
0
0
0
0
0
0
0
0
0
0
0
0
0
0
8.63742e-05
3.20143e-05
8.51307e-06
-0.000620036
0.000498639
-0.000196021
-0.00031706
-0.00674926
-5.03744e-05
5.6244e-06
0
-9.41276e-05
1.95366e-05
0
-6.93577e-06
-0.000133628
0
-5.76467e-05
0
-0.000124754
-0.00018231
1.00229e-05
0.000234415
0.000133067
0.000262415
-0.000662209
0.000168313
0.00190646
-0.000631917
-0.00120448
-0.000917977
7.71956e-05
9.89848e-05
0
0
-3.95429e-05
0
0
0
0.000362059
0
0
-1.44271e-05
0
-2.08997e-05
-0.000146493
-0.000270154
-0.000171503
0.000116794
0.000391181
0.000165614
0.000304207
0.000139668
0.003258
-5.42212e-05
0.000415578
0
0
0
0
0.000143077
-9.8657e-05
-0.0011172
-0.000150742
0.000231313
-0.000151141
0.000965351
-0.000953433
-0.000125293
-0.000155797
0
-0.000139413
0.000435842
0
-0.000370096
-4.44004e-05
-0.00128272
0.000449987
-0.00156703
0.0036408
-5.1532e-05
0
0
-0.00025154
0
0
-5.85757e-05
0.000605037
0.000467935
0.000324437
-0.00115152
-0.00145948
0
0
-0.000257822
0.000509594
0.000129298
-0.000405258
-0.000546506
-0.00664314
-0.000189899
8.01533e-05
0
-9.47384e-05
0
-9.2694e-05
-5.81976e-05
0.00142986
-0.00127227
0.000137389
0.000988971
0.000466214
0
-0.000221533
0
0
5.18142e-05
0
0.000637021
-0.000156321
3.20032e-05
-0.00142158
-0.0001333
0.000836335
0
0
0.000465226
-0.000433211
8.09924e-05
-0.000111443
-0.00063786
-0.000130982
0
-0.000123388
-0.00900107
-0.00182543
-0.000356672
0
0
0.00202112
0.000410102
-0.00214349
0
0.000839788
0.00316885
0.990644
0.989508
-0.00133389
-0.000689425
0.000220715
0.00281389
0.00572249
0.00826559
0.00356601
0.0103396
1.00778
1.00905
0.00573045
0.000466115
-4.86027e-05
0.000695519
3.19249e-06
0.00141143
0.00212657
0.00107246
0.000904341
-0.000839421
0.987502
-0.000171101
0.0020277
-5.63419e-05
-0.000457135
-0.0056564
-0.000420535
0.991185
0.0021774
0.00555487
0.99574
1.00769
6.31837e-06
0.00203739
0.00461878
-0.00196252
1.00292
0.000523355
0.00954154
0.991773
0.00269216
0.998186
1.00265
0.00533559
0.0031152
0.00103852
0.998597
-0.000358261
0.00537222
0.00626932
-0.000837037
-7.94083e-05
0.000389492
-7.2823e-05
0.00302739
8.89174e-05
4.44165e-05
0
9.04123e-05
-0.000297704
0
0.000183863
0.000399578
-0.000752626
-0.00101969
-0.000486503
-0.00292975
-0.000130943
0
0
0.000469738
0
0
-0.000245931
9.08605e-05
0.000132835
-0.000148112
0.000864653
0.00433966
0
0
4.50776e-05
-0.0013742
0.000306903
0.00286832
0.00011994
-0.000268497
0
-0.000846664
0.000152753
-0.00194285
0.000160877
0
0
-0.000233358
0.000701354
0.00326425
0
-0.000630153
0.0017095
0.994958
-0.0010943
0.0011842
0.00830177
-0.00509505
0.00801011
1.00247
-0.0001064
0.000867617
0.00132801
0.00315162
-0.0143224
0.9911
0.000333549
-0.00579906
0.993771
-0.0069118
1.00118
-0.00409466
-5.96425e-05
1.73757e-05
-0.000139089
0.000228958
4.11051e-05
3.91853e-06
0
4.65039e-05
-7.62262e-05
0
9.18618e-05
6.25717e-06
-2.2696e-05
-3.66756e-05
6.48983e-06
-0.000726532
-5.52444e-06
0
0
2.87324e-05
0
0
-6.29623e-06
-5.08583e-05
-0.000142664
-7.87364e-05
0.000185095
0.000488739
0
0
0.000101096
-7.28232e-05
-4.58162e-05
-4.75007e-05
6.15852e-05
6.3094e-05
0
0.00011458
9.9544e-06
-0.000177331
-1.14983e-05
0
0
-5.1637e-05
-0.000125555
0.000258674
0
-2.98861e-05
-0.000264118
-7.19235e-05
0.000124309
0.000164434
-0.000995198
-0.000673047
0.000213064
0.00339359
-5.12583e-05
0.000519937
0.000155849
0.000466721
0.00164777
0.00321099
6.57513e-05
-0.00211207
-0.000773478
-0.000481549
0.000580238
0.0048307
-0.000867562
0.00134163
0.00356732
0.00108756
2.62423e-05
-3.06352e-05
5.66747e-05
-0.000101493
-2.61377e-05
0
-1.39303e-05
0
-3.60285e-05
-2.00097e-06
2.09632e-05
4.97903e-06
0
0
8.01102e-07
3.04833e-05
-1.6198e-06
3.61738e-05
-4.92661e-05
0
-5.20547e-05
7.7739e-05
0
-2.10124e-05
9.225e-05
-0.000263214
-5.79207e-05
-0.000143618
0.000392178
-9.94225e-06
4.19782e-05
-0.000205943
0.000105822
0.000264344
-0.000283613
0.000363729
-6.6396e-05
0.000342205
-0.00038221
0.0029382
7.42194e-05
-0.000626227
0
-1.15627e-05
0
5.04487e-05
0.000161419
-0.000923406
-9.72111e-05
-0.00461629
3.6546e-05
0.000277885
0
0.000462838
0
0
-0.000178598
0
-2.46683e-05
0.00166746
1.92344e-05
0.00317335
-0.000118884
-0.000313726
0
0
-0.0012616
0.000180931
0.000305837
0.00263284
-0.000502444
0.000345838
0
-0.000826046
-0.00388139
0.00251401
-3.73637e-05
0
0
0.00133435
-0.000880141
-0.00050831
0
7.96495e-05
0.00291345
0.996236
0.000162072
-0.00872902
0.00782464
0.00167557
7.97821e-05
0.00186084
0.00076261
0.996627
-0.000261231
0.00118367
-0.0103276
0.000361025
0.994386
-0.0086307
1.00411
-0.00615
0.000174757
0.000743165
-5.0825e-05
1.07141e-05
0
-0.000428422
-0.000226905
0.000109423
0.000371632
0
0
0.000130924
-2.49547e-05
0.00297244
0
-0.00100781
0.00448149
-0.000921624
-0.00467363
-0.00336544
0.00387302
0.00315814
1.04623
-0.0300774
3.88652e-05
0.000180721
3.46048e-06
-8.42376e-05
0
-0.000131553
3.30606e-05
-0.000350107
-7.19606e-05
0
0
9.48661e-06
0.000226823
-0.000377307
0
0.000162048
0.000134707
-0.000122925
-0.00040939
-0.000360027
0.000398748
0.000220043
0.00253176
-0.000507098
-8.67634e-06
-5.71083e-05
-9.13697e-06
0
3.65955e-05
-4.63183e-05
0
2.00025e-05
5.52855e-05
-1.422e-05
8.40829e-06
-6.67428e-05
-3.48349e-05
-6.37131e-05
-5.43729e-05
-0.000111573
6.59094e-06
7.91508e-05
0
-2.06641e-07
0
4.575e-05
6.99353e-06
0.000143652
0.000260048
-2.52329e-05
-9.11561e-06
-3.93669e-05
0
2.26532e-05
0
0
4.45079e-05
0
-0.0001168
-0.000195083
1.85911e-05
-5.30511e-05
3.6248e-05
-0.000122991
0
0
1.21168e-05
6.639e-05
-4.04224e-05
-4.15709e-05
-1.7564e-05
5.88677e-05
0
9.81295e-05
-0.000488939
0.000241323
-5.17153e-05
0
0
6.03483e-05
-5.97835e-05
-0.000494693
0
0.000118633
-0.000341515
-0.000561971
0.000166141
-0.000553536
0.00022112
0.00385562
0.000242981
0.000140681
-0.000259223
0.0016689
5.1754e-05
0.00239022
-0.000113934
0.000330645
-0.000353316
1.85789e-05
-0.000148681
-0.000824244
0.00254725
0.00120433
0.00274891
-0.00102045
0.00192446
0.00184108
8.49655e-07
2.65221e-05
-1.72007e-05
4.94395e-05
0
-5.05423e-05
-5.69139e-05
0.000256208
-2.96438e-06
0
0
7.16638e-05
-0.000110712
-3.6531e-05
0
2.56554e-06
-0.000101564
0.000157404
2.57635e-05
3.07078e-05
-0.000300865
9.86289e-06
0.00440733
-0.00121797
6.56332e-06
1.95943e-05
-2.54706e-05
3.85398e-05
-1.44811e-05
0
0
7.38249e-05
4.03142e-05
-5.145e-05
0
-2.84012e-05
2.19061e-05
0.000238645
2.00388e-05
-9.76608e-05
-0.000685643
0.000300862
-1.3652e-05
7.14925e-06
0
-2.92253e-05
-0.000104488
2.58553e-05
1.00372e-05
-2.72398e-06
2.12398e-06
1.16613e-05
0
1.5209e-05
0
-2.2739e-05
1.07793e-05
-3.61811e-05
3.45497e-05
2.60306e-05
0
0
-1.32564e-05
-2.14194e-05
-9.31784e-06
-1.95633e-06
-5.4475e-05
0
-2.74204e-05
-3.77907e-05
0
-4.89387e-06
6.51328e-05
-0.000136236
-1.3916e-05
0.000383021
4.77766e-05
-8.14008e-05
-8.58348e-05
3.45952e-05
-0.000271242
0.000454975
-0.00061861
0.000473667
1.2815e-06
-4.08912e-05
-1.25765e-05
0
2.82839e-05
-9.32448e-05
0
4.96451e-05
1.20207e-05
-5.19687e-05
1.0279e-05
-1.13561e-05
-1.38703e-05
-4.54648e-07
0
-2.25754e-05
-0.000138645
3.76305e-05
1.00425
0.998651
0.998165
0.997107
0.99212
0.994876
0.994819
1.00227
1.00011
0.99908
1.0025
0.999398
1.00182
1.00272
1.00031
0.00737842
0.00628384
0.00695364
0.998707
0.997847
1.00238
0.996298
0.998183
0.997796
0.99988
0.998603
1.0034
0.000796874
0.995667
1.00633
0.995672
0.999111
0.995975
1.00197
1.00012
0.998
1.00264
1.00011
0.998228
1.00217
1.0015
0.997058
1.00181
0.998027
0.997354
0.998475
0.995323
1.00186
0.998675
1.00028
1.00195
1.00065
1.00186
0.99953
1.00154
0.998456
1.00166
0.997016
0.996376
0.993701
1.00033
1.00191
1.00316
1.00494
0.996862
0.99184
0.995714
0.998999
1.00795
1.00058
1.00407
0.0057749
0.99879
1.00192
1.00039
0.983615
0.997345
0.996169
1.00548
0.997748
1.00788
0.996297
1.00363
1.0043
1.00182
0.00219291
0.992618
0.000197399
0.000381541
0.9907
0.00519561
0.00613764
1.00222
0.000333527
0.00799108
0.0057468
0.00266635
0.995872
1.00232
0.000487497
0.989486
0.992486
0.00593324
0.996948
1.00259
0.00339201
0.994124
1.00372
0.995113
-0.000465173
0.00161459
-0.000144015
9.28943e-05
-5.14404e-05
0.000658449
-4.21378e-05
-0.000424066
0.00237889
-0.000714533
0.002088
0.000114404
1.00431
0.998311
0.991944
1.00403
0.998792
1.00361
0.996065
0.995571
0.997953
1.00768
1.00088
0.00672209
1.00214
1.00255
0.996927
0.998192
1.0022
1.00399
0.998484
1.00474
0.999704
1.00836
0.989413
0.996093
0.993271
1.01627
1.01535
1.00224
0.964245
0.00217424
0.000279581
0.00595712
0.991804
0.00302244
0.00626492
1.0014
0.990108
-0.000234141
-0.000319603
0.000222873
-0.000192777
0.000859971
0.993576
0.000156806
0.00469354
0.993449
1.00171
0.00506871
0.000690246
0.00653739
0.996669
0.00222809
1.00299
0.000394121
0.0059953
0.991421
-1.67072e-06
0.992326
0.00415715
1.00191
0.999056
0.997995
0.00325753
1.00161
0.995446
0.00100393
0.000639237
0.992197
0.00601777
0.00545977
0.0023147
1.00334
0.989572
0.000592208
0.00111424
-0.000210632
-0.000459068
0.00514707
0.00122046
-8.37725e-05
0.00022275
-0.000113174
0.00101739
4.12171e-05
8.61805e-05
0.000656153
8.35828e-05
-0.000418644
-0.000131005
0.00121747
0.000163892
0.00152803
0.00015794
-0.000338372
-0.000166044
0.000660723
-0.000299106
-9.69366e-05
0.00021207
1.00102
0.99963
0.999502
0.999527
0.997221
0.998676
0.99874
1.0005
0.99992
1.00015
1.00046
1.00084
1.00026
1.00038
1.00058
1.00012
1.00175
1.00211
1.00086
0.999659
1.00046
1.0003
0.999941
0.999067
0.999
0.999403
0.999817
1.00038
0.997155
0.998442
1.00074
0.998362
0.999649
0.999347
1.00067
0.999819
1.00016
1.00135
1.00037
1.00034
0.999695
1.00046
1.00016
0.998534
0.999795
1.00028
0.998969
0.999702
0.999651
0.999303
1.00045
1.00142
1.00017
1.00028
1.00032
1.00006
1.00042
0.999739
0.99918
1.00023
0.999588
1.00021
0.999584
0.998733
0.998975
1.002
1.00029
1.00058
0.999465
0.999262
1.00085
0.998983
0.999383
0.999142
0.998674
1.00043
1.00083
1.00102
1.00075
1.00084
1.00214
0.999793
0.999678
0.998399
0.998442
0.998879
0.998058
1.00217
0.999211
1.00044
0.999729
1.00074
1.00037
0.998722
1.00035
0.999938
0.993251
0.997201
0.00670335
0.00498827
1.00155
1.0009
1.00015
1.00117
0.00171662
1.00034
0.998118
0.992174
0.999465
1.00038
0.99555
1.00124
0.997337
0.999761
0.998261
1.00118
0.996932
1.00007
1.00118
1.00009
0.00150201
0.00276671
0.000108462
0.000276789
0.00263052
0.00247644
0.000561134
0.00214282
0.00306068
0.00245248
0.0044539
0.00348182
1.00015
0.99965
0.997329
1.00024
1.00034
1.00058
1.00008
0.999606
1.00018
0.998606
1.00108
0.999449
1.00273
1.00002
1.0006
0.998643
0.99929
1.00077
1.00068
1.00018
0.998257
1.00044
1.00008
1.00027
0.999384
0.997846
1.00022
1.00029
1.00015
1.0011
0.999494
1.0006
0.994124
0.00564769
0.999575
1.00149
0.994042
1.00128
1.00023
1.00076
0.00130875
0.00020289
0.00303263
0.00174751
0.994915
0.997922
0.00568044
1.00093
1.00012
1.00062
1.00015
0.00375095
1.00135
0.999752
0.994645
1.00056
0.00119744
0.999651
0.999561
0.995893
0.997226
1.00161
1.00105
0.999132
0.999649
0.998329
1.00061
0.999386
0.993529
0.00634276
1.00142
1.00146
1.00228
0.993652
0.999762
0.999427
0.00410928
0.00421159
0.00300801
0.00241723
0.997753
0.993116
0.000481047
9.60865e-05
0.000740785
0.00234214
0.00019396
0.00221571
0.00227876
0.000431879
0.00093916
0.000534493
0.00250173
0.00199752
0.00418676
0.0025883
0.000636307
0.00018055
0.00213603
0.00129684
0.000402051
0.000117252
0.998099
0.99934
0.999331
0.999802
1.00035
1.00111
0.999789
1.00025
0.99972
1.00002
1.00017
1.00014
0.999122
0.999685
1.00094
0.999939
0.999482
0.999943
0.999699
0.999933
0.999971
0.999717
0.999197
0.999897
0.999482
1.00001
0.999617
0.999632
1.00027
0.999537
0.999929
0.99963
1.00011
0.999671
0.999584
0.999015
0.998139
0.999213
1.00082
1.00025
0.999454
1.00014
0.999159
1.00119
0.999226
1.00042
1.00022
0.99946
0.996412
0.998168
0.00453199
1.00157
0.997777
1.00034
0.997917
1.00026
0.998208
1.00249
1.00024
0.998126
0.00296463
0.00567954
0.000640871
0.00219981
0.00519588
0.992723
0.99821
0.999366
0.999754
0.999854
1.00023
1.00077
1.00097
1.00005
0.999581
0.999772
1.00006
0.999789
0.998226
0.999603
1.00024
1.00103
0.996993
0.997537
1.00113
1.00055
0.00278401
0.00228032
0.997513
0.999277
1.00083
0.999646
0.998974
0.00397953
0.999491
0.999433
0.999602
0.999473
1.00152
0.998801
0.997352
1.00128
0.998954
0.999412
0.00397426
0.00453448
0.997807
0.000878676
0.00193823
0.00504395
0.00179984
0.000351694
0.00448651
0.993096
0.00145232
0.00180845
0.000813147
0.983713
-0.0075899
-0.00385326
0.973911
-0.00339391
0.961937
-0.0043785
-0.0108424
0.994217
0.965455
-0.00669457
0.96706
0.994966
0.997643
0.993551
0.996687
0.995089
0.992755
0.00429062
0.00540425
0.0233048
-0.00268293
0.0137521
0.995673
1.00024
0.982081
-0.00110537
-0.00271203
0.0130491
0.0257889
0.990451
0.00570072
0.00524599
-0.00323265
0.0139826
0.0316088
0.998334
1.00043
0.962278
0.00526465
-0.000693803
0.024964
1.00731
0.979938
0.999415
1.01183
1.00126
0.996212
1.006
1.00376
1.01003
0.999191
1.00252
1.01967
0.998904
1.00123
0.996319
1.02382
1.00222
1.0008
-0.00723731
0.00151472
0.000493845
0.015846
0.973112
0.000220967
0.00417242
0.0116669
0.970277
-0.00857183
0.000527792
0.00208613
0.0183458
0.978621
-0.00566975
-0.00469264
0.0254083
0.974949
0.999321
0.995641
0.99903
1.00619
0.989233
0.995324
1.00447
0.99897
1.00087
1.01593
0.993913
0.99235
1.00496
0.993134
0.020263
0.0130996
0.0242547
0.0203356
1.00817
1.00722
1.00798
1.01118
-0.0036645
0.0218149
1.00387
2.37888e-05
0.0219141
0.00240628
-0.000723034
0.00243283
0.974833
0.0170436
1.00409
0.997645
0.987237
1.00518
0.00269004
0.00651459
0.0131032
-0.00511167
0.00779493
0.005414
0.957126
1.00231
0.992132
1.00824
0.991874
0.989706
0.00063836
0.0180111
0.98045
1.01132
0.0021713
0.000364406
1.00479
0.030782
-0.0162594
0.929328
0.997329
1.00676
1.00609
-0.00179127
-0.00070898
-0.00305088
0.00333804
-0.00574692
0.997877
0.0144661
0.962137
-0.00888999
-0.0186923
0.0436878
0.934345
0.932052
0.997229
1.00192
0.999206
0.995384
0.981648
1.00795
0.994625
0.00166686
0.0117708
0.00271709
0.0197543
0.973327
-0.00960244
0.0454258
0.0464846
0.953953
1.00377
0.99701
0.995388
1.01282
0.995394
1.02524
0.00676936
0.0269366
1.00547
1.01657
-0.0104166
0.923934
1.00765
-0.00785292
0.00217339
0.037218
0.970362
1.00086
1.00705
0.994244
0.0184649
0.0351648
0.0170476
1.06134
0.985959
0.997668
0.919784
0.99892
0.999434
0.998407
0.999127
0.999114
0.998953
1.00243
1.00099
0.999952
1.0003
0.999301
1.0033
1.00124
0.999884
1.00209
1.00192
0.999508
1.00037
0.999509
1.00246
1.00024
1.00025
1.00031
0.999313
1.00213
0.999047
0.997707
1.0005
0.998591
1.00096
0.99953
1.00098
0.998021
0.999364
0.99955
0.99823
1.00228
1.00218
1.0033
1.00348
1.00101
1.00144
0.998337
0.99961
1.00149
0.998399
1.00011
1.00108
0.998363
0.997923
0.996557
1.00335
0.999245
1.00166
1.00084
1.00167
0.996701
0.999235
1.00042
0.998966
0.998101
1.00134
0.998903
1.00186
0.99996
1.00245
0.999357
0.997172
1.00208
0.999144
1.00085
1.00155
1.00128
0.997316
1.00116
0.99915
0.997452
1.0021
0.999766
1.00077
0.00285485
0.00114435
0.000748901
0.00176666
0.00418385
0.00247111
-0.00145715
-0.00221428
0.00116933
0.000524708
0.00112723
-0.00238365
-0.00171731
0.0017244
-0.00185762
0.000278241
0.00267817
-0.000149708
0.00322262
0.0016509
0.000890365
0.000831483
-0.000802603
0.0011246
-0.00230578
0.00115029
-0.000813206
-0.000480476
0.0065686
0.000955827
0.000216398
0.000967221
0.00377673
0.00769081
-0.00119521
0.00451098
0.00417601
0.00325914
-0.000317232
-0.00352049
-0.00723535
0.957976
-0.0106865
0.968956
0.993559
0.994233
-0.0011728
-0.00349265
0.0195474
0.0292581
0.990635
0.00304912
-0.0020055
0.0275396
1.00112
0.988121
1.00505
1.01315
0.997723
1.01375
1.00031
0.996383
-0.00606643
0.00159601
0.0140736
0.96262
-0.0105955
0.00294198
0.0156329
0.964105
0.984963
0.994319
1.00347
0.99893
1.00102
0.993067
0.0224668
0.0302538
1.01162
1.0163
0.00482772
0.999491
0.999639
-0.00267361
-0.0024153
-0.00112176
0.982295
0.984962
0.996465
0.998498
1.00184
-0.00562119
0.0197176
0.0129417
0.970978
1.00359
0.991825
1.00313
0.0187029
1.02498
0.998999
0.998842
1.00353
1.0009
0.999177
1.00269
0.999906
0.998497
0.996864
1.00152
0.998597
0.999946
1.00283
0.998216
1.00245
1.00316
1.00013
0.999938
0.998726
0.999985
1.0021
0.999714
0.998897
1.00259
0.00286744
0.00423395
0.000695748
0.0015927
-0.00102384
0.000907854
0.00231693
0.00458782
-0.00162164
0.000867915
0.00124194
0.00221852
-0.00359562
-0.00455612
0.992512
0.959814
0.994141
0.995193
-0.00270399
-0.00234425
0.989005
0.982268
-0.00485624
-0.0181343
-0.00583462
0.0145278
0.0165545
0.983587
0.936904
0.993112
0.00332264
0.0300065
0.998219
0.997381
1.00553
1.01134
0.994842
0.997488
0.997138
1.00481
-0.00187308
0.0132984
0.0156804
0.980592
-0.0112721
0.022861
0.0450273
0.0179455
0.938703
-0.00228586
-0.00245349
0.972106
1.00249
0.99726
1.00626
1.00545
1.02178
1.00118
0.98822
0.984312
0.996688
0.0118738
0.0378402
0.0121072
1.00741
1.03514
1.00851
-0.00434091
0.979333
0.993323
-0.00420069
0.00254332
0.0192053
0.988792
0.989888
0.997164
1.01089
1.00423
-0.000971291
0.0164988
0.00570036
0.984189
1.00518
0.997262
0.997777
0.00901278
1.00739
-0.0044357
-0.00270929
0.0127138
0.0144533
-0.000421926
0.0129068
1.00093
1.00208
1.0093
0.00244792
0.000940667
0.00164607
0.00585644
0.00227531
0.980485
0.980728
0.0225878
-0.00193774
0.00393801
-0.00201827
0.0211653
0.0300018
0.999421
0.998539
0.994797
1.00603
0.993169
1.00168
0.976877
1.00756
-0.00762633
0.00541435
0.00904084
-0.00401931
0.965445
-0.00498359
0.00329067
-0.00943971
0.955975
1.00352
0.99432
1.00376
0.985248
0.992173
0.993603
0.979513
0.02192
0.0201859
1.01156
1.01574
0.00202742
0.0129934
1.00665
-0.000898805
-0.00205765
0.00624335
1.00139
0.971766
0.00439298
0.991066
0.998583
0.999225
0.999632
0.999212
1.00327
1.00241
0.998248
0.999525
0.99871
1.00098
1.00116
1.00169
0.999554
1.0034
1.00091
1.00233
0.997988
0.997311
0.999264
1.00157
1.00388
1.00116
0.998476
1.00334
0.999203
1.00073
1.00176
0.998306
0.999569
1.00074
1.00038
1.00065
1.00276
1.00004
0.998965
0.999914
0.999587
1.0015
0.995738
1.00042
1.00174
1.00012
1.00102
0.99759
0.99853
0.999333
0.996728
0.998614
1.00242
1.00261
1.00096
0.996216
1.00082
0.9979
0.00180047
0.00197081
0.00134803
0.000569396
0.00202196
0.00747694
0.00270767
-0.0016108
0.000724585
0.00468834
0.000457918
0.00159982
0.00183106
-0.000802726
0.000442479
0.0018058
0.00099348
0.000191949
-0.000836235
-0.000307839
-0.000555443
0.000917659
-0.00140096
0.00284186
0.00208159
-0.000929395
9.11764e-05
0.00132227
0.0357108
1.00795
-0.00653227
-0.00293726
0.96143
0.979293
0.993597
0.0225444
1.01246
1.00192
0.995535
0.99838
1.00295
-0.000288924
0.00271032
-0.000529297
0.959996
0.995506
0.00793299
-0.000139381
0.0102512
1.01836
1.00411
1.00885
1.00274
0.999304
-0.0112496
-0.00582533
0.00933156
0.940328
0.992074
0.998205
0.989257
0.037531
1.03043
0.00161335
0.0215378
1.01233
-0.00285134
0.00410985
-0.00744213
0.0219691
0.0302099
1.00289
0.966934
1.00731
-0.00497203
0.00729574
-0.00776164
0.955002
0.992395
0.992955
0.982465
0.0159166
1.01504
-0.00126632
0.0134896
1.00736
-0.00296251
0.00258042
0.00307106
-0.0023082
0.0170087
0.00984795
0.0126042
0.00376174
0.0256661
1.00167
1.00865
0.977065
1.00823
1.00588
0.00252866
0.00924793
0.000819958
-0.000779287
0.0211315
-0.00463281
-0.00697695
0.958512
0.99499
1.00459
0.966654
0.966879
0.994132
0.983762
-0.00997863
0.0153019
0.987561
1.01348
0.999443
1.00194
1.00028
0.999379
0.999606
1.00117
0.997837
1.00378
1.00335
0.993718
1.00054
1.00204
0.999303
0.997647
0.998433
1.00235
1.00208
0.995835
1.0003
1.00309
1.00258
1.00158
1.00026
0.997334
0.997306
1.00122
0.998029
0.998703
0.995187
1.0019
-6.82461e-05
-0.00298308
0.000137781
0.00419493
-0.00107911
0.00134754
-0.00138357
0.00158703
0.000121046
0.00144707
-0.000394749
-0.000522788
-0.00119777
-0.00172597
0.00173901
0.00171228
0.00278153
0.0108495
0.0174127
0.000185721
0.000830589
1.00398
1.00735
0.98592
0.00299916
-0.00252936
-0.00302064
0.0128946
0.00315996
0.000766338
0.0152702
0.985711
1.00409
0.979146
0.0288133
1.006
-0.0027268
-0.00347484
0.979409
0.970158
0.000781231
0.00410333
0.980054
-0.0019762
0.0194506
1.00087
1.00162
0.996582
0.997196
0.995746
1.00056
1.00477
1.00093
0.996271
0.994649
0.995718
1.00118
-0.000639579
-0.00120898
-0.00033926
-0.00126705
-0.00171549
-0.000698986
0.00245143
0.0163142
1.00405
0.00015179
0.972698
1.00055
0.994611
-0.00172622
0.00381909
0.00165404
0.0164227
0.00528359
0.00065351
0.00708453
1.00439
0.989394
1.00093
0.000177751
-0.00432101
-0.00163761
0.00958451
0.0021769
0.00230517
0.0130172
0.983457
0.0234629
1.0068
0.98975
1.00599
0.00214846
-0.00162434
0.97166
0.978422
-0.000494472
-0.00137892
0.981054
0.00149728
0.0192681
1.00092
0.997545
1.00008
0.997037
1.00307
1.00139
0.998217
1.00123
0.995157
0.995804
0.996262
1.00207
-0.00177918
-0.000802242
-0.000668882
-0.000400954
-0.00125017
-0.000334036
0.00150148
0.00219763
0.981855
0.00221379
-0.000803238
0.011668
0.0265494
1.00782
-0.000909272
0.973372
0.996266
1.00621
1.00168
0.995036
-0.000873642
-0.00122763
1.00037
1.00023
1.00023
1.00014
1.00042
1.00042
0.999943
0.999776
1
0.999726
1.00041
1.00043
1.00016
1.00046
1.00011
0.999784
1.00021
1.00015
1.00083
1.00067
0.999494
0.999567
0.999983
1.00017
1.00018
1.00016
1.00033
0.999473
0.999795
1.00034
1.00036
1.00016
0.999414
1.00076
0.999767
1.00031
0.999542
0.999429
1.00013
0.999781
1.00041
1.00045
0.999476
1.00039
1.00009
1.0007
1.00029
1.0008
1.00007
1.0004
1.00021
1.00042
1.00062
1.00032
0.999916
1.00014
1.00085
1.00034
1.00057
0.999331
0.99998
1.00103
1.00001
1.00071
1.00029
0.999979
1.00005
1.00001
0.999795
0.999222
0.999869
1.00006
0.999627
0.999469
0.999372
1.00038
1.00022
0.999625
0.999479
0.999048
1.00018
1.00001
1.00013
1.00041
1.00116
0.998595
0.99942
0.999718
1.00003
0.999022
0.999743
0.999746
0.999713
0.999622
0.998808
1.00004
0.999969
0.999557
1.00193
0.999735
0.999028
1.00036
0.999521
0.999674
1.00175
0.999971
0.999247
0.999439
1.00142
1.00143
0.999372
0.000854453
0.0112258
-0.00102166
0.00386379
1.00258
0.983189
1.00068
0.997243
0.999282
-0.00103017
-0.00265224
0.000297599
0.00250927
0.978977
0.0239385
0.996897
1.00452
1.00152
0.997486
0.996356
0.997666
0.998426
0.998268
0.999034
0.998479
0.99985
0.997955
1.00131
1.00212
1.00137
1.00085
1.00254
1.0026
1.00269
1.00155
1.00173
0.991385
1.00022
0.999661
0.985227
1.00215
0.989335
1.00153
0.993279
0.983513
1.00204
1.00399
0.982994
1.00532
0.983407
0.986803
1.00353
1.00395
1.00189
0.986355
1.00514
1.00078
1.00253
0.999787
1.00047
1.00173
0.99963
1.0012
1.00027
1.00158
1.00207
1.00135
1.00165
1.00121
1.00131
1.00215
1.00057
1.00086
1.00227
1.00096
1.00175
1.00049
1.00064
0.997211
0.994352
1.00416
0.997742
0.992432
0.984899
0.983106
1.0078
0.985725
0.987171
0.97974
0.987407
1.0121
0.988412
0.987122
1.00514
1.00005
1.00074
0.999741
0.999312
0.99956
0.99936
0.998812
1.00022
0.997412
0.998408
0.998221
0.998996
1.00117
0.997398
1.0003
0.99969
0.992035
0.988028
0.980088
0.988374
0.997399
0.99523
0.993462
0.997214
1.00135
1.01157
1.00747
0.999444
1.00018
1.00038
0.988774
1.01527
0.981006
0.979016
1.02191
0.999539
0.99847
0.994199
0.996311
0.999465
0.984458
0.97612
0.991046
0.987738
1.00465
1.00621
1.00015
1.00042
0.983264
1.02247
0.98148
1.01092
0.998317
0.997316
0.997277
0.999131
0.977723
0.984318
0.985279
0.993688
1.01138
1.00032
0.977363
1.00953
0.994374
0.998989
0.984745
0.994042
0.999271
0.999207
0.999206
0.99926
0.99886
0.998571
0.998916
0.999197
0.999357
0.999739
0.999687
0.999736
0.99995
0.999267
0.999174
0.998804
0.999585
0.999031
0.999221
0.999737
0.999888
1.00048
0.999608
0.999179
1.00063
1.00056
1.00038
1.00028
1.00188
1.00151
1.00033
0.999894
1.00365
1.00061
1.00013
1.00138
1.00574
1.00381
0.999796
0.999648
0.98528
0.986822
1.01834
1.01973
0.996852
0.99793
0.999905
0.997183
0.974783
0.98475
0.988752
0.987919
1.00132
1.00028
1.014
0.98557
0.998781
0.999683
0.984027
0.991869
1.00021
1.00065
1.00101
1.0033
0.999693
1.0015
0.998026
0.99428
1.00263
1.00248
1.00695
0.998572
0.983168
1.00483
1.00162
0.98641
1.00419
1.00182
0.999883
1.00079
1.00157
1.00095
0.999922
1.00042
1.00433
1.00055
1.00209
1.00095
0.984129
1.0267
0.985931
0.99274
1.00683
0.993424
0.98981
0.981457
1.00607
0.984805
1.01599
0.998746
0.997683
1.00174
0.999301
1.00106
0.99953
0.997865
0.999656
0.999907
1.00124
0.998671
0.973071
0.978986
0.988599
0.982764
0.981218
0.994763
0.996264
0.990108
1.00949
1.0007
0.979676
1.02521
0.995427
0.999428
0.972627
0.985409
1.0383
0.99663
0.968722
0.975274
0.998723
0.998983
0.999007
0.998748
0.999922
0.998939
0.99938
0.99887
0.999265
1.00462
0.999824
0.99965
1.00151
0.999886
1.00152
1.00577
1.02299
0.99848
0.97267
0.984627
1.00298
